M48
METRIC,LZ,000.000
;FILE_FORMAT=3:3
;TYPE=PLATED
;Layer: PTH_Through
;EasyEDA v6.5.54, 2026-04-09 20:59:34
;48ed62c4ed5e4daebd3a49d7cfea4b1c,c2296cdfdccb4bf5b3cc1ae1b2fbad1b,10
;Gerber Generator version 0.2
;Holesize 1 = 0.306 mm
T01C0.306
;Holesize 2 = 0.829 mm
T02C0.829
;Holesize 3 = 0.901 mm
T03C0.901
;Holesize 4 = 0.915 mm
T04C0.915
;Holesize 5 = 1.000 mm
T05C1.000
;Holesize 6 = 1.001 mm
T06C1.001
;Holesize 7 = 1.021 mm
T07C1.021
;Holesize 8 = 1.199 mm
T08C1.199
;Holesize 9 = 1.200 mm
T09C1.200
;Holesize 10 = 1.270 mm
T10C1.270
%
G05
G90
T01
X071444Y-083801
X087121Y-074561
X068814Y-059690
X067660Y-064770
X084088Y-077590
X070082Y-057150
X077725Y-023368
X063777Y-025908
X062363Y036068
X030607Y-063627
X048728Y-033528
X076915Y005711
X064048Y-030655
X030726Y-037137
X083006Y018288
X044166Y-041148
X065766Y-074561
X099469Y013208
X148844Y027305
X077824Y-004679
X061829Y-007259
X051045Y028770
X048825Y030988
X135636Y044450
T02
X027813Y-012421
X027813Y-009840
X027813Y-007259
X027813Y-004679
X027813Y-002098
X027813Y000483
T03
X075438Y-085090
X072898Y-085090
X075438Y-082550
X072898Y-082550
X075438Y-080010
X072898Y-080010
X075438Y-077470
X072898Y-077470
X075438Y-074930
X072898Y-074930
X075438Y-072390
X072898Y-072390
X075438Y-069850
X072898Y-069850
X075438Y-067310
X072898Y-067310
X075438Y-064770
X072898Y-064770
X075438Y-062230
X072898Y-062230
X075438Y-059690
X072898Y-059690
X075438Y-057150
X072898Y-057150
X075438Y-054610
X072898Y-054610
X075438Y-052070
X072898Y-052070
X075438Y-049530
X072898Y-049530
X075438Y-046990
X072898Y-046990
X075438Y-044450
X072898Y-044450
X075438Y-041910
X072898Y-041910
X075438Y-039370
X072898Y-039370
X075438Y-036830
X072898Y-036830
T04
X135255Y-044958
X135255Y-047498
X135255Y-050038
X135255Y-052578
X135255Y-055118
X135255Y-057658
X135255Y-060198
X135255Y-062738
X135255Y-065278
X135255Y-067818
X135255Y-070358
X135255Y-072898
X135255Y-075438
X135255Y-077978
X229235Y-057658
X229235Y-060198
X229235Y-062738
X229235Y-065278
X226060Y047120G85X226060Y047114
X226060Y042040G85X226060Y042034
X052896Y022921
X052896Y020419
X052896Y017920
X052896Y015420
X052896Y012921
X052896Y010419
X027897Y020419
X027897Y017920
X027897Y015420
X027897Y012921
X027813Y038100
X027813Y040640
X027813Y043180
X027813Y045720
X140208Y047498
X140208Y044958
X140208Y042418
X140208Y039878
X140208Y037338
X140208Y034798
X140208Y032258
X140208Y029718
X157988Y047498
X157988Y044958
X157988Y042418
X157988Y039878
X157988Y037338
X157988Y034798
X157988Y032258
X157988Y029718
X141097Y-000127
X141097Y004953
X141097Y002413
X224409Y-027559
X221869Y-027559
T05
X160179Y-012827
X151479Y-012827
X027813Y-023368
X027813Y-025908
X027813Y-028448
X027813Y-030988
X027813Y-033528
X027813Y-036068
X027813Y-038608
X027813Y-041148
X094996Y003048
X094996Y005588
X094996Y008128
X094996Y010668
X094996Y013208
X094996Y015748
X094996Y018288
X094996Y020828
X094996Y023368
X094996Y025908
X094996Y028448
X094996Y030988
X094996Y033528
X094996Y036068
X094996Y038608
X120396Y005588
X120396Y008128
X120396Y010668
X120396Y013208
X120396Y015748
X120396Y018288
X120396Y020828
X120396Y023368
X120396Y025908
X120396Y028448
X120396Y030988
X120396Y033528
X120396Y036068
X120396Y038608
X120396Y003048
T06
X028321Y-071755
X028321Y-069215
X028321Y-066675
X028321Y-064135
T07
X055499Y050800
X055499Y048260
X055499Y045720
X055499Y043180
X055499Y040640
X055499Y038100
X055499Y035560
X055499Y033020
X042799Y050800
X042799Y048260
X042799Y045720
X042799Y043180
X042799Y040640
X042799Y038100
X042799Y035560
X042799Y033020
T08
X154153Y-022225
X158013Y-022225
T09
X165989Y001905
X165989Y006985
X165989Y012065
T10
X214982Y-017395
X231982Y-017395
X231982Y022605
X214982Y022605
M30
