M48
METRIC,LZ,000.000
;FILE_FORMAT=3:3
;TYPE=PLATED
;Layer: PTH_Through_Via
;EasyEDA v6.5.54, 2026-04-09 20:59:34
;48ed62c4ed5e4daebd3a49d7cfea4b1c,c2296cdfdccb4bf5b3cc1ae1b2fbad1b,10
;Gerber Generator version 0.2
;Holesize 1 = 0.306 mm
T01C0.306
%
G05
G90
T01
X071444Y-083801
X087121Y-074561
X068814Y-059690
X067660Y-064770
X084088Y-077590
X070082Y-057150
X077725Y-023368
X063777Y-025908
X062363Y036068
X030607Y-063627
X048728Y-033528
X076915Y005711
X064048Y-030655
X030726Y-037137
X083006Y018288
X044166Y-041148
X065766Y-074561
X099469Y013208
X148844Y027305
X077824Y-004679
X061829Y-007259
X051045Y028770
X048825Y030988
X135636Y044450
M30
