G04 Layer: TopSilkscreenLayer*
G04 EasyEDA v6.5.54, 2026-04-09 20:59:34*
G04 48ed62c4ed5e4daebd3a49d7cfea4b1c,c2296cdfdccb4bf5b3cc1ae1b2fbad1b,10*
G04 Gerber Generator version 0.2*
G04 Scale: 100 percent, Rotated: No, Reflected: No *
G04 Dimensions in millimeters *
G04 leading zeros omitted , absolute positions ,4 integer and 5 decimal *
%FSLAX45Y45*%
%MOMM*%

%ADD10C,0.1524*%
%ADD11C,0.2032*%
%ADD12C,0.2000*%
%ADD13C,0.2540*%
%ADD14C,0.2030*%
%ADD15C,0.3097*%
%ADD16C,1.0000*%
%ADD17C,0.0170*%
%ADD18C,0.2500*%
%ADD19C,0.2007*%
%ADD20C,0.5000*%
%ADD21C,5.0000*%

%LPD*%
D10*
X15589250Y-1677415D02*
G01*
X15589250Y-1568450D01*
X15589250Y-1677415D02*
G01*
X15552927Y-1677415D01*
X15537179Y-1672336D01*
X15527020Y-1661921D01*
X15521686Y-1651507D01*
X15516606Y-1635760D01*
X15516606Y-1609852D01*
X15521686Y-1594357D01*
X15527020Y-1583944D01*
X15537179Y-1573529D01*
X15552927Y-1568450D01*
X15589250Y-1568450D01*
X15482316Y-1656587D02*
G01*
X15471902Y-1661921D01*
X15456154Y-1677415D01*
X15456154Y-1568450D01*
X15637509Y-1726184D02*
G01*
X15637509Y-1809242D01*
X15632175Y-1824989D01*
X15627095Y-1830070D01*
X15616681Y-1835150D01*
X15606268Y-1835150D01*
X15595854Y-1830070D01*
X15590520Y-1824989D01*
X15585440Y-1809242D01*
X15585440Y-1798828D01*
X15671800Y-1726184D02*
G01*
X15671800Y-1835150D01*
X15671800Y-1726184D02*
G01*
X15718536Y-1726184D01*
X15734029Y-1731263D01*
X15739109Y-1736597D01*
X15744443Y-1747012D01*
X15744443Y-1762505D01*
X15739109Y-1772920D01*
X15734029Y-1778000D01*
X15718536Y-1783334D01*
X15671800Y-1783334D01*
X15778734Y-1747012D02*
G01*
X15789147Y-1741678D01*
X15804641Y-1726184D01*
X15804641Y-1835150D01*
X18148300Y-3161284D02*
G01*
X18148300Y-3270250D01*
X18148300Y-3270250D02*
G01*
X18210529Y-3270250D01*
X18322798Y-3187192D02*
G01*
X18317718Y-3176778D01*
X18307304Y-3166363D01*
X18296890Y-3161284D01*
X18276061Y-3161284D01*
X18265648Y-3166363D01*
X18255234Y-3176778D01*
X18250154Y-3187192D01*
X18244820Y-3202939D01*
X18244820Y-3228847D01*
X18250154Y-3244342D01*
X18255234Y-3254755D01*
X18265648Y-3265170D01*
X18276061Y-3270250D01*
X18296890Y-3270250D01*
X18307304Y-3265170D01*
X18317718Y-3254755D01*
X18322798Y-3244342D01*
X18357088Y-3161284D02*
G01*
X18357088Y-3270250D01*
X18357088Y-3161284D02*
G01*
X18393409Y-3161284D01*
X18409158Y-3166363D01*
X18419572Y-3176778D01*
X18424652Y-3187192D01*
X18429986Y-3202939D01*
X18429986Y-3228847D01*
X18424652Y-3244342D01*
X18419572Y-3254755D01*
X18409158Y-3265170D01*
X18393409Y-3270250D01*
X18357088Y-3270250D01*
X18464275Y-3182112D02*
G01*
X18474690Y-3176778D01*
X18490184Y-3161284D01*
X18490184Y-3270250D01*
D11*
X14275432Y-7521305D02*
G01*
X14389986Y-7521305D01*
X14275432Y-7559405D02*
G01*
X14275432Y-7483205D01*
X14275432Y-7414371D02*
G01*
X14281020Y-7425293D01*
X14291942Y-7436215D01*
X14302864Y-7441549D01*
X14319120Y-7447137D01*
X14346552Y-7447137D01*
X14362808Y-7441549D01*
X14373730Y-7436215D01*
X14384652Y-7425293D01*
X14389986Y-7414371D01*
X14389986Y-7392527D01*
X14384652Y-7381605D01*
X14373730Y-7370683D01*
X14362808Y-7365349D01*
X14346552Y-7359761D01*
X14319120Y-7359761D01*
X14302864Y-7365349D01*
X14291942Y-7370683D01*
X14281020Y-7381605D01*
X14275432Y-7392527D01*
X14275432Y-7414371D01*
X14275432Y-7323693D02*
G01*
X14357474Y-7323693D01*
X14373730Y-7318359D01*
X14384652Y-7307437D01*
X14389986Y-7291181D01*
X14389986Y-7280259D01*
X14384652Y-7263749D01*
X14373730Y-7252827D01*
X14357474Y-7247493D01*
X14275432Y-7247493D01*
X14302864Y-7129637D02*
G01*
X14291942Y-7134971D01*
X14281020Y-7145893D01*
X14275432Y-7156815D01*
X14275432Y-7178659D01*
X14281020Y-7189581D01*
X14291942Y-7200503D01*
X14302864Y-7206091D01*
X14319120Y-7211425D01*
X14346552Y-7211425D01*
X14362808Y-7206091D01*
X14373730Y-7200503D01*
X14384652Y-7189581D01*
X14389986Y-7178659D01*
X14389986Y-7156815D01*
X14384652Y-7145893D01*
X14373730Y-7134971D01*
X14362808Y-7129637D01*
X14275432Y-7093569D02*
G01*
X14389986Y-7093569D01*
X14275432Y-7017369D02*
G01*
X14389986Y-7017369D01*
X14330042Y-7093569D02*
G01*
X14330042Y-7017369D01*
X13818758Y-4686764D02*
G01*
X13814186Y-4677620D01*
X13805042Y-4668476D01*
X13795898Y-4664158D01*
X13777864Y-4664158D01*
X13768720Y-4668476D01*
X13759576Y-4677620D01*
X13755004Y-4686764D01*
X13750432Y-4700480D01*
X13750432Y-4723086D01*
X13755004Y-4736802D01*
X13759576Y-4745946D01*
X13768720Y-4755090D01*
X13777864Y-4759408D01*
X13795898Y-4759408D01*
X13805042Y-4755090D01*
X13814186Y-4745946D01*
X13818758Y-4736802D01*
X13818758Y-4723086D01*
X13795898Y-4723086D02*
G01*
X13818758Y-4723086D01*
X13848730Y-4664158D02*
G01*
X13848730Y-4759408D01*
X13848730Y-4664158D02*
G01*
X13912230Y-4759408D01*
X13912230Y-4664158D02*
G01*
X13912230Y-4759408D01*
X13942456Y-4664158D02*
G01*
X13942456Y-4759408D01*
X13942456Y-4664158D02*
G01*
X13974206Y-4664158D01*
X13987922Y-4668476D01*
X13996812Y-4677620D01*
X14001384Y-4686764D01*
X14005956Y-4700480D01*
X14005956Y-4723086D01*
X14001384Y-4736802D01*
X13996812Y-4745946D01*
X13987922Y-4755090D01*
X13974206Y-4759408D01*
X13942456Y-4759408D01*
X13818758Y-4961511D02*
G01*
X13814186Y-4952367D01*
X13805042Y-4943477D01*
X13795898Y-4938905D01*
X13777864Y-4938905D01*
X13768720Y-4943477D01*
X13759576Y-4952367D01*
X13755004Y-4961511D01*
X13750432Y-4975227D01*
X13750432Y-4997833D01*
X13755004Y-5011549D01*
X13759576Y-5020693D01*
X13768720Y-5029837D01*
X13777864Y-5034409D01*
X13795898Y-5034409D01*
X13805042Y-5029837D01*
X13814186Y-5020693D01*
X13818758Y-5011549D01*
X13912230Y-4952367D02*
G01*
X13903086Y-4943477D01*
X13889624Y-4938905D01*
X13871336Y-4938905D01*
X13857874Y-4943477D01*
X13848730Y-4952367D01*
X13848730Y-4961511D01*
X13853302Y-4970655D01*
X13857874Y-4975227D01*
X13866764Y-4979799D01*
X13894196Y-4988943D01*
X13903086Y-4993515D01*
X13907658Y-4997833D01*
X13912230Y-5006977D01*
X13912230Y-5020693D01*
X13903086Y-5029837D01*
X13889624Y-5034409D01*
X13871336Y-5034409D01*
X13857874Y-5029837D01*
X13848730Y-5020693D01*
X13750508Y-4429787D02*
G01*
X13786830Y-4525291D01*
X13823152Y-4429787D02*
G01*
X13786830Y-4525291D01*
X13921450Y-4452647D02*
G01*
X13916878Y-4443503D01*
X13907734Y-4434359D01*
X13898590Y-4429787D01*
X13880302Y-4429787D01*
X13871412Y-4434359D01*
X13862268Y-4443503D01*
X13857696Y-4452647D01*
X13853124Y-4466109D01*
X13853124Y-4488969D01*
X13857696Y-4502685D01*
X13862268Y-4511575D01*
X13871412Y-4520719D01*
X13880302Y-4525291D01*
X13898590Y-4525291D01*
X13907734Y-4520719D01*
X13916878Y-4511575D01*
X13921450Y-4502685D01*
X14019494Y-4452647D02*
G01*
X14014922Y-4443503D01*
X14005778Y-4434359D01*
X13996888Y-4429787D01*
X13978600Y-4429787D01*
X13969456Y-4434359D01*
X13960312Y-4443503D01*
X13955994Y-4452647D01*
X13951422Y-4466109D01*
X13951422Y-4488969D01*
X13955994Y-4502685D01*
X13960312Y-4511575D01*
X13969456Y-4520719D01*
X13978600Y-4525291D01*
X13996888Y-4525291D01*
X14005778Y-4520719D01*
X14014922Y-4511575D01*
X14019494Y-4502685D01*
X13750432Y-5188899D02*
G01*
X13750432Y-5284403D01*
X13750432Y-5188899D02*
G01*
X13791326Y-5188899D01*
X13805042Y-5193471D01*
X13809614Y-5198043D01*
X13813932Y-5207187D01*
X13813932Y-5216077D01*
X13809614Y-5225221D01*
X13805042Y-5229793D01*
X13791326Y-5234365D01*
X13750432Y-5234365D01*
X13782182Y-5234365D02*
G01*
X13813932Y-5284403D01*
X13844158Y-5188899D02*
G01*
X13844158Y-5284403D01*
X13844158Y-5188899D02*
G01*
X13903086Y-5188899D01*
X13844158Y-5234365D02*
G01*
X13880480Y-5234365D01*
X13844158Y-5284403D02*
G01*
X13903086Y-5284403D01*
X13996812Y-5202615D02*
G01*
X13987668Y-5193471D01*
X13973952Y-5188899D01*
X13955918Y-5188899D01*
X13942202Y-5193471D01*
X13933058Y-5202615D01*
X13933058Y-5211759D01*
X13937630Y-5220649D01*
X13942202Y-5225221D01*
X13951346Y-5229793D01*
X13978524Y-5238937D01*
X13987668Y-5243509D01*
X13992240Y-5248081D01*
X13996812Y-5257225D01*
X13996812Y-5270687D01*
X13987668Y-5279831D01*
X13973952Y-5284403D01*
X13955918Y-5284403D01*
X13942202Y-5279831D01*
X13933058Y-5270687D01*
X14026784Y-5188899D02*
G01*
X14026784Y-5284403D01*
X14026784Y-5188899D02*
G01*
X14085966Y-5188899D01*
X14026784Y-5234365D02*
G01*
X14063106Y-5234365D01*
X14026784Y-5284403D02*
G01*
X14085966Y-5284403D01*
X14147688Y-5188899D02*
G01*
X14147688Y-5284403D01*
X14115938Y-5188899D02*
G01*
X14179438Y-5188899D01*
X13750427Y-5457151D02*
G01*
X13750427Y-5552655D01*
X13750427Y-5457151D02*
G01*
X13782177Y-5457151D01*
X13795893Y-5461723D01*
X13804783Y-5470867D01*
X13809355Y-5480011D01*
X13813927Y-5493473D01*
X13813927Y-5516333D01*
X13809355Y-5530049D01*
X13804783Y-5538939D01*
X13795893Y-5548083D01*
X13782177Y-5552655D01*
X13750427Y-5552655D01*
X13925687Y-5439117D02*
G01*
X13843899Y-5584405D01*
X14023985Y-5480011D02*
G01*
X14019413Y-5470867D01*
X14010269Y-5461723D01*
X14001379Y-5457151D01*
X13983091Y-5457151D01*
X13973947Y-5461723D01*
X13964803Y-5470867D01*
X13960231Y-5480011D01*
X13955913Y-5493473D01*
X13955913Y-5516333D01*
X13960231Y-5530049D01*
X13964803Y-5538939D01*
X13973947Y-5548083D01*
X13983091Y-5552655D01*
X14001379Y-5552655D01*
X14010269Y-5548083D01*
X14019413Y-5538939D01*
X14023985Y-5530049D01*
X13814181Y-5727611D02*
G01*
X13805037Y-5718467D01*
X13791321Y-5714149D01*
X13773287Y-5714149D01*
X13759571Y-5718467D01*
X13750427Y-5727611D01*
X13750427Y-5736755D01*
X13754999Y-5745899D01*
X13759571Y-5750471D01*
X13768715Y-5755043D01*
X13795893Y-5763933D01*
X13805037Y-5768505D01*
X13809609Y-5773077D01*
X13814181Y-5782221D01*
X13814181Y-5795937D01*
X13805037Y-5805081D01*
X13791321Y-5809399D01*
X13773287Y-5809399D01*
X13759571Y-5805081D01*
X13750427Y-5795937D01*
X13844153Y-5714149D02*
G01*
X13844153Y-5809399D01*
X13844153Y-5714149D02*
G01*
X13875903Y-5714149D01*
X13889619Y-5718467D01*
X13898763Y-5727611D01*
X13903335Y-5736755D01*
X13907907Y-5750471D01*
X13907907Y-5773077D01*
X13903335Y-5786793D01*
X13898763Y-5795937D01*
X13889619Y-5805081D01*
X13875903Y-5809399D01*
X13844153Y-5809399D01*
X13937879Y-5714149D02*
G01*
X13937879Y-5809399D01*
X13814183Y-5977620D02*
G01*
X13805039Y-5968476D01*
X13791323Y-5963904D01*
X13773289Y-5963904D01*
X13759573Y-5968476D01*
X13750429Y-5977620D01*
X13750429Y-5986510D01*
X13755001Y-5995654D01*
X13759573Y-6000226D01*
X13768717Y-6004798D01*
X13795895Y-6013942D01*
X13805039Y-6018514D01*
X13809611Y-6023086D01*
X13814183Y-6031976D01*
X13814183Y-6045692D01*
X13805039Y-6054836D01*
X13791323Y-6059408D01*
X13773289Y-6059408D01*
X13759573Y-6054836D01*
X13750429Y-6045692D01*
X13912227Y-5986510D02*
G01*
X13907655Y-5977620D01*
X13898765Y-5968476D01*
X13889621Y-5963904D01*
X13871333Y-5963904D01*
X13862189Y-5968476D01*
X13853299Y-5977620D01*
X13848727Y-5986510D01*
X13844155Y-6000226D01*
X13844155Y-6023086D01*
X13848727Y-6036548D01*
X13853299Y-6045692D01*
X13862189Y-6054836D01*
X13871333Y-6059408D01*
X13889621Y-6059408D01*
X13898765Y-6054836D01*
X13907655Y-6045692D01*
X13912227Y-6036548D01*
X13942199Y-5963904D02*
G01*
X13942199Y-6059408D01*
X14005953Y-5963904D02*
G01*
X13942199Y-6027658D01*
X13965059Y-6004798D02*
G01*
X14005953Y-6059408D01*
X13750427Y-6213899D02*
G01*
X13750427Y-6309403D01*
X13750427Y-6309403D02*
G01*
X13805037Y-6309403D01*
X13835009Y-6213899D02*
G01*
X13835009Y-6309403D01*
X13835009Y-6213899D02*
G01*
X13894191Y-6213899D01*
X13835009Y-6259365D02*
G01*
X13871331Y-6259365D01*
X13835009Y-6309403D02*
G01*
X13894191Y-6309403D01*
X13924163Y-6213899D02*
G01*
X13924163Y-6309403D01*
X13924163Y-6213899D02*
G01*
X13955913Y-6213899D01*
X13969629Y-6218471D01*
X13978519Y-6227615D01*
X13983091Y-6236759D01*
X13987663Y-6250221D01*
X13987663Y-6273081D01*
X13983091Y-6286797D01*
X13978519Y-6295687D01*
X13969629Y-6304831D01*
X13955913Y-6309403D01*
X13924163Y-6309403D01*
X13814183Y-6477614D02*
G01*
X13805039Y-6468470D01*
X13791323Y-6463898D01*
X13773289Y-6463898D01*
X13759573Y-6468470D01*
X13750429Y-6477614D01*
X13750429Y-6486758D01*
X13755001Y-6495902D01*
X13759573Y-6500220D01*
X13768717Y-6504792D01*
X13795895Y-6513936D01*
X13805039Y-6518508D01*
X13809611Y-6523080D01*
X13814183Y-6532224D01*
X13814183Y-6545686D01*
X13805039Y-6554830D01*
X13791323Y-6559402D01*
X13773289Y-6559402D01*
X13759573Y-6554830D01*
X13750429Y-6545686D01*
X13844155Y-6463898D02*
G01*
X13844155Y-6559402D01*
X13844155Y-6463898D02*
G01*
X13875905Y-6463898D01*
X13889621Y-6468470D01*
X13898511Y-6477614D01*
X13903083Y-6486758D01*
X13907655Y-6500220D01*
X13907655Y-6523080D01*
X13903083Y-6536796D01*
X13898511Y-6545686D01*
X13889621Y-6554830D01*
X13875905Y-6559402D01*
X13844155Y-6559402D01*
X13965059Y-6463898D02*
G01*
X13955915Y-6468470D01*
X13946771Y-6477614D01*
X13942199Y-6486758D01*
X13937627Y-6500220D01*
X13937627Y-6523080D01*
X13942199Y-6536796D01*
X13946771Y-6545686D01*
X13955915Y-6554830D01*
X13965059Y-6559402D01*
X13983093Y-6559402D01*
X13992237Y-6554830D01*
X14001381Y-6545686D01*
X14005953Y-6536796D01*
X14010525Y-6523080D01*
X14010525Y-6500220D01*
X14005953Y-6486758D01*
X14001381Y-6477614D01*
X13992237Y-6468470D01*
X13983093Y-6463898D01*
X13965059Y-6463898D01*
X13757181Y-6707154D02*
G01*
X13757181Y-6802404D01*
X13725431Y-6707154D02*
G01*
X13789185Y-6707154D01*
X13819157Y-6834408D02*
G01*
X13900945Y-6834408D01*
X13998989Y-6729760D02*
G01*
X13994417Y-6720616D01*
X13985527Y-6711472D01*
X13976383Y-6707154D01*
X13958095Y-6707154D01*
X13949205Y-6711472D01*
X13940061Y-6720616D01*
X13935489Y-6729760D01*
X13930917Y-6743476D01*
X13930917Y-6766082D01*
X13935489Y-6779798D01*
X13940061Y-6788942D01*
X13949205Y-6797832D01*
X13958095Y-6802404D01*
X13976383Y-6802404D01*
X13985527Y-6797832D01*
X13994417Y-6788942D01*
X13998989Y-6779798D01*
X14028961Y-6707154D02*
G01*
X14028961Y-6802404D01*
X14028961Y-6802404D02*
G01*
X14083571Y-6802404D01*
X14113543Y-6707154D02*
G01*
X14113543Y-6802404D01*
X14177297Y-6707154D02*
G01*
X14113543Y-6770654D01*
X14136403Y-6748048D02*
G01*
X14177297Y-6802404D01*
X13757181Y-6957151D02*
G01*
X13757181Y-7052655D01*
X13725431Y-6957151D02*
G01*
X13788931Y-6957151D01*
X13818903Y-7084405D02*
G01*
X13900945Y-7084405D01*
X13998989Y-6979757D02*
G01*
X13994417Y-6970867D01*
X13985273Y-6961723D01*
X13976383Y-6957151D01*
X13958095Y-6957151D01*
X13948951Y-6961723D01*
X13940061Y-6970867D01*
X13935489Y-6979757D01*
X13930917Y-6993473D01*
X13930917Y-7016079D01*
X13935489Y-7029795D01*
X13940061Y-7038939D01*
X13948951Y-7048083D01*
X13958095Y-7052655D01*
X13976383Y-7052655D01*
X13985273Y-7048083D01*
X13994417Y-7038939D01*
X13998989Y-7029795D01*
X14092715Y-6970867D02*
G01*
X14083571Y-6961723D01*
X14069855Y-6957151D01*
X14051821Y-6957151D01*
X14038105Y-6961723D01*
X14028961Y-6970867D01*
X14028961Y-6979757D01*
X14033533Y-6988901D01*
X14038105Y-6993473D01*
X14047249Y-6998045D01*
X14074427Y-7007189D01*
X14083571Y-7011761D01*
X14088143Y-7016079D01*
X14092715Y-7025223D01*
X14092715Y-7038939D01*
X14083571Y-7048083D01*
X14069855Y-7052655D01*
X14051821Y-7052655D01*
X14038105Y-7048083D01*
X14028961Y-7038939D01*
X13757178Y-7232147D02*
G01*
X13757178Y-7327651D01*
X13725428Y-7232147D02*
G01*
X13788928Y-7232147D01*
X13818900Y-7359401D02*
G01*
X13900688Y-7359401D01*
X13930660Y-7232147D02*
G01*
X13930660Y-7327651D01*
X13930660Y-7232147D02*
G01*
X13962664Y-7232147D01*
X13976126Y-7236719D01*
X13985270Y-7245863D01*
X13989842Y-7255007D01*
X13994414Y-7268469D01*
X13994414Y-7291329D01*
X13989842Y-7304791D01*
X13985270Y-7313935D01*
X13976126Y-7323079D01*
X13962664Y-7327651D01*
X13930660Y-7327651D01*
X14024386Y-7232147D02*
G01*
X14024386Y-7327651D01*
X14054358Y-7232147D02*
G01*
X14054358Y-7327651D01*
X14054358Y-7232147D02*
G01*
X14118112Y-7327651D01*
X14118112Y-7232147D02*
G01*
X14118112Y-7327651D01*
X13757181Y-7482149D02*
G01*
X13757181Y-7577653D01*
X13725431Y-7482149D02*
G01*
X13788931Y-7482149D01*
X13819157Y-7609403D02*
G01*
X13900945Y-7609403D01*
X13930917Y-7482149D02*
G01*
X13930917Y-7577653D01*
X13930917Y-7482149D02*
G01*
X13962667Y-7482149D01*
X13976383Y-7486721D01*
X13985527Y-7495865D01*
X13989845Y-7504755D01*
X13994417Y-7518471D01*
X13994417Y-7541331D01*
X13989845Y-7554793D01*
X13985527Y-7563937D01*
X13976383Y-7573081D01*
X13962667Y-7577653D01*
X13930917Y-7577653D01*
X14051821Y-7482149D02*
G01*
X14042677Y-7486721D01*
X14033533Y-7495865D01*
X14028961Y-7504755D01*
X14024389Y-7518471D01*
X14024389Y-7541331D01*
X14028961Y-7554793D01*
X14033533Y-7563937D01*
X14042677Y-7573081D01*
X14051821Y-7577653D01*
X14069855Y-7577653D01*
X14078999Y-7573081D01*
X14088143Y-7563937D01*
X14092715Y-7554793D01*
X14097287Y-7541331D01*
X14097287Y-7518471D01*
X14092715Y-7504755D01*
X14088143Y-7495865D01*
X14078999Y-7486721D01*
X14069855Y-7482149D01*
X14051821Y-7482149D01*
X13757181Y-7732148D02*
G01*
X13757181Y-7827652D01*
X13725431Y-7732148D02*
G01*
X13788931Y-7732148D01*
X13818903Y-7859402D02*
G01*
X13900691Y-7859402D01*
X13930917Y-7732148D02*
G01*
X13930917Y-7827652D01*
X13960889Y-7732148D02*
G01*
X13960889Y-7827652D01*
X13960889Y-7732148D02*
G01*
X14001783Y-7732148D01*
X14015245Y-7736720D01*
X14019817Y-7741292D01*
X14024389Y-7750436D01*
X14024389Y-7759580D01*
X14019817Y-7768470D01*
X14015245Y-7773042D01*
X14001783Y-7777614D01*
X13960889Y-7777614D01*
X13992639Y-7777614D02*
G01*
X14024389Y-7827652D01*
X14081793Y-7732148D02*
G01*
X14072649Y-7736720D01*
X14063505Y-7745864D01*
X14058933Y-7755008D01*
X14054361Y-7768470D01*
X14054361Y-7791330D01*
X14058933Y-7805046D01*
X14063505Y-7813936D01*
X14072649Y-7823080D01*
X14081793Y-7827652D01*
X14099827Y-7827652D01*
X14108971Y-7823080D01*
X14118115Y-7813936D01*
X14122687Y-7805046D01*
X14127259Y-7791330D01*
X14127259Y-7768470D01*
X14122687Y-7755008D01*
X14118115Y-7745864D01*
X14108971Y-7736720D01*
X14099827Y-7732148D01*
X14081793Y-7732148D01*
X14095255Y-7809364D02*
G01*
X14122687Y-7836796D01*
X22161893Y-5966322D02*
G01*
X22153003Y-5957178D01*
X22139287Y-5952606D01*
X22120999Y-5952606D01*
X22107537Y-5957178D01*
X22098393Y-5966322D01*
X22098393Y-5975466D01*
X22102965Y-5984356D01*
X22107537Y-5988928D01*
X22116427Y-5993500D01*
X22143859Y-6002644D01*
X22153003Y-6007216D01*
X22157321Y-6011788D01*
X22161893Y-6020932D01*
X22161893Y-6034394D01*
X22153003Y-6043538D01*
X22139287Y-6048110D01*
X22120999Y-6048110D01*
X22107537Y-6043538D01*
X22098393Y-6034394D01*
X22191865Y-5952606D02*
G01*
X22191865Y-6048110D01*
X22191865Y-5952606D02*
G01*
X22223869Y-5952606D01*
X22237331Y-5957178D01*
X22246475Y-5966322D01*
X22251047Y-5975466D01*
X22255619Y-5988928D01*
X22255619Y-6011788D01*
X22251047Y-6025250D01*
X22246475Y-6034394D01*
X22237331Y-6043538D01*
X22223869Y-6048110D01*
X22191865Y-6048110D01*
X22285591Y-6079860D02*
G01*
X22367379Y-6079860D01*
X22397351Y-5952606D02*
G01*
X22397351Y-6048110D01*
X22397351Y-5952606D02*
G01*
X22433927Y-6048110D01*
X22470249Y-5952606D02*
G01*
X22433927Y-6048110D01*
X22470249Y-5952606D02*
G01*
X22470249Y-6048110D01*
X22527399Y-5952606D02*
G01*
X22518255Y-5957178D01*
X22509365Y-5966322D01*
X22504793Y-5975466D01*
X22500221Y-5988928D01*
X22500221Y-6011788D01*
X22504793Y-6025250D01*
X22509365Y-6034394D01*
X22518255Y-6043538D01*
X22527399Y-6048110D01*
X22545687Y-6048110D01*
X22554831Y-6043538D01*
X22563721Y-6034394D01*
X22568293Y-6025250D01*
X22572865Y-6011788D01*
X22572865Y-5988928D01*
X22568293Y-5975466D01*
X22563721Y-5966322D01*
X22554831Y-5957178D01*
X22545687Y-5952606D01*
X22527399Y-5952606D01*
X22666591Y-5966322D02*
G01*
X22657447Y-5957178D01*
X22643731Y-5952606D01*
X22625697Y-5952606D01*
X22611981Y-5957178D01*
X22602837Y-5966322D01*
X22602837Y-5975466D01*
X22607409Y-5984356D01*
X22611981Y-5988928D01*
X22621125Y-5993500D01*
X22648303Y-6002644D01*
X22657447Y-6007216D01*
X22662019Y-6011788D01*
X22666591Y-6020932D01*
X22666591Y-6034394D01*
X22657447Y-6043538D01*
X22643731Y-6048110D01*
X22625697Y-6048110D01*
X22611981Y-6043538D01*
X22602837Y-6034394D01*
X22696563Y-5952606D02*
G01*
X22696563Y-6048110D01*
X22161888Y-6216322D02*
G01*
X22152744Y-6207178D01*
X22139282Y-6202606D01*
X22120994Y-6202606D01*
X22107278Y-6207178D01*
X22098388Y-6216322D01*
X22098388Y-6225466D01*
X22102706Y-6234356D01*
X22107278Y-6238928D01*
X22116422Y-6243500D01*
X22143854Y-6252644D01*
X22152744Y-6257216D01*
X22157316Y-6261788D01*
X22161888Y-6270932D01*
X22161888Y-6284394D01*
X22152744Y-6293538D01*
X22139282Y-6298110D01*
X22120994Y-6298110D01*
X22107278Y-6293538D01*
X22098388Y-6284394D01*
X22260186Y-6225466D02*
G01*
X22255614Y-6216322D01*
X22246470Y-6207178D01*
X22237326Y-6202606D01*
X22219292Y-6202606D01*
X22210148Y-6207178D01*
X22201004Y-6216322D01*
X22196432Y-6225466D01*
X22191860Y-6238928D01*
X22191860Y-6261788D01*
X22196432Y-6275250D01*
X22201004Y-6284394D01*
X22210148Y-6293538D01*
X22219292Y-6298110D01*
X22237326Y-6298110D01*
X22246470Y-6293538D01*
X22255614Y-6284394D01*
X22260186Y-6275250D01*
X22290158Y-6329860D02*
G01*
X22371946Y-6329860D01*
X22401918Y-6202606D02*
G01*
X22401918Y-6298110D01*
X22401918Y-6202606D02*
G01*
X22438240Y-6298110D01*
X22474562Y-6202606D02*
G01*
X22438240Y-6298110D01*
X22474562Y-6202606D02*
G01*
X22474562Y-6298110D01*
X22504534Y-6202606D02*
G01*
X22504534Y-6298110D01*
X22598260Y-6216322D02*
G01*
X22589116Y-6207178D01*
X22575654Y-6202606D01*
X22557366Y-6202606D01*
X22543650Y-6207178D01*
X22534760Y-6216322D01*
X22534760Y-6225466D01*
X22539078Y-6234356D01*
X22543650Y-6238928D01*
X22552794Y-6243500D01*
X22580226Y-6252644D01*
X22589116Y-6257216D01*
X22593688Y-6261788D01*
X22598260Y-6270932D01*
X22598260Y-6284394D01*
X22589116Y-6293538D01*
X22575654Y-6298110D01*
X22557366Y-6298110D01*
X22543650Y-6293538D01*
X22534760Y-6284394D01*
X22655664Y-6202606D02*
G01*
X22646520Y-6207178D01*
X22637376Y-6216322D01*
X22632804Y-6225466D01*
X22628232Y-6238928D01*
X22628232Y-6261788D01*
X22632804Y-6275250D01*
X22637376Y-6284394D01*
X22646520Y-6293538D01*
X22655664Y-6298110D01*
X22673698Y-6298110D01*
X22682842Y-6293538D01*
X22691986Y-6284394D01*
X22696558Y-6275250D01*
X22701130Y-6261788D01*
X22701130Y-6238928D01*
X22696558Y-6225466D01*
X22691986Y-6216322D01*
X22682842Y-6207178D01*
X22673698Y-6202606D01*
X22655664Y-6202606D01*
X22187143Y-6466321D02*
G01*
X22177999Y-6457177D01*
X22164283Y-6452605D01*
X22146249Y-6452605D01*
X22132533Y-6457177D01*
X22123389Y-6466321D01*
X22123389Y-6475465D01*
X22127961Y-6484355D01*
X22132533Y-6488927D01*
X22141677Y-6493499D01*
X22168855Y-6502643D01*
X22177999Y-6507215D01*
X22182571Y-6511787D01*
X22187143Y-6520931D01*
X22187143Y-6534393D01*
X22177999Y-6543537D01*
X22164283Y-6548109D01*
X22146249Y-6548109D01*
X22132533Y-6543537D01*
X22123389Y-6534393D01*
X22285187Y-6475465D02*
G01*
X22280869Y-6466321D01*
X22271725Y-6457177D01*
X22262581Y-6452605D01*
X22244293Y-6452605D01*
X22235403Y-6457177D01*
X22226259Y-6466321D01*
X22221687Y-6475465D01*
X22217115Y-6488927D01*
X22217115Y-6511787D01*
X22221687Y-6525249D01*
X22226259Y-6534393D01*
X22235403Y-6543537D01*
X22244293Y-6548109D01*
X22262581Y-6548109D01*
X22271725Y-6543537D01*
X22280869Y-6534393D01*
X22285187Y-6525249D01*
X22315413Y-6579859D02*
G01*
X22397201Y-6579859D01*
X22490673Y-6466321D02*
G01*
X22481783Y-6457177D01*
X22468067Y-6452605D01*
X22449779Y-6452605D01*
X22436317Y-6457177D01*
X22427173Y-6466321D01*
X22427173Y-6475465D01*
X22431745Y-6484355D01*
X22436317Y-6488927D01*
X22445207Y-6493499D01*
X22472639Y-6502643D01*
X22481783Y-6507215D01*
X22486101Y-6511787D01*
X22490673Y-6520931D01*
X22490673Y-6534393D01*
X22481783Y-6543537D01*
X22468067Y-6548109D01*
X22449779Y-6548109D01*
X22436317Y-6543537D01*
X22427173Y-6534393D01*
X22588971Y-6475465D02*
G01*
X22584399Y-6466321D01*
X22575255Y-6457177D01*
X22566111Y-6452605D01*
X22548077Y-6452605D01*
X22538933Y-6457177D01*
X22529789Y-6466321D01*
X22525217Y-6475465D01*
X22520645Y-6488927D01*
X22520645Y-6511787D01*
X22525217Y-6525249D01*
X22529789Y-6534393D01*
X22538933Y-6543537D01*
X22548077Y-6548109D01*
X22566111Y-6548109D01*
X22575255Y-6543537D01*
X22584399Y-6534393D01*
X22588971Y-6525249D01*
X22618943Y-6452605D02*
G01*
X22618943Y-6548109D01*
X22682443Y-6452605D02*
G01*
X22618943Y-6516359D01*
X22641549Y-6493499D02*
G01*
X22682443Y-6548109D01*
X22312116Y-5711748D02*
G01*
X22302972Y-5702604D01*
X22289256Y-5698032D01*
X22271222Y-5698032D01*
X22257506Y-5702604D01*
X22248362Y-5711748D01*
X22248362Y-5720892D01*
X22252934Y-5729782D01*
X22257506Y-5734354D01*
X22266650Y-5738926D01*
X22293828Y-5748070D01*
X22302972Y-5752642D01*
X22307544Y-5757214D01*
X22312116Y-5766358D01*
X22312116Y-5779820D01*
X22302972Y-5788964D01*
X22289256Y-5793536D01*
X22271222Y-5793536D01*
X22257506Y-5788964D01*
X22248362Y-5779820D01*
X22342088Y-5698032D02*
G01*
X22342088Y-5793536D01*
X22342088Y-5698032D02*
G01*
X22373838Y-5698032D01*
X22387554Y-5702604D01*
X22396444Y-5711748D01*
X22401016Y-5720892D01*
X22405588Y-5734354D01*
X22405588Y-5757214D01*
X22401016Y-5770676D01*
X22396444Y-5779820D01*
X22387554Y-5788964D01*
X22373838Y-5793536D01*
X22342088Y-5793536D01*
X22435560Y-5825286D02*
G01*
X22517602Y-5825286D01*
X22615646Y-5720892D02*
G01*
X22611074Y-5711748D01*
X22601930Y-5702604D01*
X22593040Y-5698032D01*
X22574752Y-5698032D01*
X22565608Y-5702604D01*
X22556464Y-5711748D01*
X22552146Y-5720892D01*
X22547574Y-5734354D01*
X22547574Y-5757214D01*
X22552146Y-5770676D01*
X22556464Y-5779820D01*
X22565608Y-5788964D01*
X22574752Y-5793536D01*
X22593040Y-5793536D01*
X22601930Y-5788964D01*
X22611074Y-5779820D01*
X22615646Y-5770676D01*
X22709372Y-5711748D02*
G01*
X22700228Y-5702604D01*
X22686512Y-5698032D01*
X22668478Y-5698032D01*
X22654762Y-5702604D01*
X22645618Y-5711748D01*
X22645618Y-5720892D01*
X22650190Y-5729782D01*
X22654762Y-5734354D01*
X22663906Y-5738926D01*
X22691084Y-5748070D01*
X22700228Y-5752642D01*
X22704800Y-5757214D01*
X22709372Y-5766358D01*
X22709372Y-5779820D01*
X22700228Y-5788964D01*
X22686512Y-5793536D01*
X22668478Y-5793536D01*
X22654762Y-5788964D01*
X22645618Y-5779820D01*
D10*
X2768600Y-2069084D02*
G01*
X2768600Y-2178050D01*
X2768600Y-2069084D02*
G01*
X2810256Y-2178050D01*
X2851658Y-2069084D02*
G01*
X2810256Y-2178050D01*
X2851658Y-2069084D02*
G01*
X2851658Y-2178050D01*
X2885947Y-2089912D02*
G01*
X2896361Y-2084578D01*
X2912109Y-2069084D01*
X2912109Y-2178050D01*
X7022084Y-6096000D02*
G01*
X7131050Y-6096000D01*
X7022084Y-6096000D02*
G01*
X7022084Y-6049263D01*
X7027163Y-6033770D01*
X7032497Y-6028436D01*
X7042911Y-6023355D01*
X7053325Y-6023355D01*
X7063740Y-6028436D01*
X7068820Y-6033770D01*
X7073900Y-6049263D01*
X7073900Y-6096000D01*
X7073900Y-6059678D02*
G01*
X7131050Y-6023355D01*
X7022084Y-5989065D02*
G01*
X7131050Y-5989065D01*
X7022084Y-5989065D02*
G01*
X7022084Y-5942329D01*
X7027163Y-5926581D01*
X7032497Y-5921502D01*
X7042911Y-5916168D01*
X7058406Y-5916168D01*
X7068820Y-5921502D01*
X7073900Y-5926581D01*
X7079234Y-5942329D01*
X7079234Y-5989065D01*
X7022084Y-5881878D02*
G01*
X7131050Y-5881878D01*
X7042911Y-5847587D02*
G01*
X7037577Y-5837173D01*
X7022084Y-5821679D01*
X7131050Y-5821679D01*
X22985222Y4385055D02*
G01*
X22995636Y4395470D01*
X23000716Y4410963D01*
X23000716Y4431792D01*
X22995636Y4447286D01*
X22985222Y4457700D01*
X22974808Y4457700D01*
X22964393Y4452620D01*
X22959059Y4447286D01*
X22953979Y4436871D01*
X22943566Y4405629D01*
X22938486Y4395470D01*
X22933152Y4390136D01*
X22922738Y4385055D01*
X22907243Y4385055D01*
X22896829Y4395470D01*
X22891750Y4410963D01*
X22891750Y4431792D01*
X22896829Y4447286D01*
X22907243Y4457700D01*
X23000716Y4350765D02*
G01*
X22891750Y4350765D01*
X23000716Y4350765D02*
G01*
X23000716Y4304029D01*
X22995636Y4288281D01*
X22990302Y4283202D01*
X22979888Y4277868D01*
X22964393Y4277868D01*
X22953979Y4283202D01*
X22948900Y4288281D01*
X22943566Y4304029D01*
X22943566Y4350765D01*
X22979888Y4243578D02*
G01*
X22985222Y4233163D01*
X23000716Y4217670D01*
X22891750Y4217670D01*
X10769600Y-403860D02*
G01*
X10769600Y-325881D01*
X10764520Y-310387D01*
X10754106Y-299973D01*
X10738358Y-294894D01*
X10727943Y-294894D01*
X10712450Y-299973D01*
X10702036Y-310387D01*
X10696956Y-325881D01*
X10696956Y-403860D01*
X10662665Y-383031D02*
G01*
X10652252Y-388365D01*
X10636504Y-403860D01*
X10636504Y-294894D01*
X2488184Y-596900D02*
G01*
X2566161Y-596900D01*
X2581656Y-591820D01*
X2592070Y-581405D01*
X2597150Y-565657D01*
X2597150Y-555244D01*
X2592070Y-539750D01*
X2581656Y-529336D01*
X2566161Y-524255D01*
X2488184Y-524255D01*
X2514091Y-484631D02*
G01*
X2509011Y-484631D01*
X2498597Y-479552D01*
X2493263Y-474218D01*
X2488184Y-463804D01*
X2488184Y-443229D01*
X2493263Y-432815D01*
X2498597Y-427481D01*
X2509011Y-422402D01*
X2519425Y-422402D01*
X2529840Y-427481D01*
X2545334Y-437895D01*
X2597150Y-489965D01*
X2597150Y-417068D01*
X3987800Y519684D02*
G01*
X3987800Y597662D01*
X3982720Y613155D01*
X3972306Y623570D01*
X3956558Y628650D01*
X3946143Y628650D01*
X3930650Y623570D01*
X3920236Y613155D01*
X3915156Y597662D01*
X3915156Y519684D01*
X3870452Y519684D02*
G01*
X3813302Y519684D01*
X3844290Y561339D01*
X3828795Y561339D01*
X3818381Y566420D01*
X3813302Y571500D01*
X3807968Y587247D01*
X3807968Y597662D01*
X3813302Y613155D01*
X3823715Y623570D01*
X3839209Y628650D01*
X3854704Y628650D01*
X3870452Y623570D01*
X3875531Y618489D01*
X3880865Y608076D01*
D11*
X5089652Y973328D02*
G01*
X5089652Y1049781D01*
X5089652Y973328D02*
G01*
X5042408Y973328D01*
X5089652Y1009650D02*
G01*
X5060441Y1009650D01*
X5089652Y1049781D02*
G01*
X5042408Y1049781D01*
X4985765Y984250D02*
G01*
X4985765Y1049781D01*
X5018277Y1017015D02*
G01*
X4953000Y1017015D01*
X5089652Y1273302D02*
G01*
X5089652Y1349755D01*
X5089652Y1273302D02*
G01*
X5042408Y1273302D01*
X5089652Y1309623D02*
G01*
X5060441Y1309623D01*
X5089652Y1349755D02*
G01*
X5042408Y1349755D01*
X5018277Y1316989D02*
G01*
X4953000Y1316989D01*
X5045709Y1503426D02*
G01*
X5074920Y1579879D01*
X5045709Y1503426D02*
G01*
X5016754Y1579879D01*
X5063997Y1554479D02*
G01*
X5027675Y1554479D01*
X4992624Y1547113D02*
G01*
X4927345Y1547113D01*
X5045456Y1753362D02*
G01*
X5074665Y1829815D01*
X5045456Y1753362D02*
G01*
X5016500Y1829815D01*
X5063743Y1804415D02*
G01*
X5027422Y1804415D01*
X4959858Y1764284D02*
G01*
X4959858Y1829815D01*
X4992370Y1797050D02*
G01*
X4927091Y1797050D01*
X5074920Y2003297D02*
G01*
X5074920Y2079752D01*
X5074920Y2003297D02*
G01*
X5042154Y2003297D01*
X5031231Y2007107D01*
X5027675Y2010663D01*
X5024120Y2017776D01*
X5024120Y2025142D01*
X5027675Y2032507D01*
X5031231Y2036063D01*
X5042154Y2039620D01*
X5074920Y2039620D02*
G01*
X5042154Y2039620D01*
X5031231Y2043429D01*
X5027675Y2046986D01*
X5024120Y2054352D01*
X5024120Y2065273D01*
X5027675Y2072386D01*
X5031231Y2076195D01*
X5042154Y2079752D01*
X5074920Y2079752D01*
X4999990Y2046986D02*
G01*
X4934458Y2046986D01*
X5074665Y2253487D02*
G01*
X5074665Y2329942D01*
X5074665Y2253487D02*
G01*
X5041900Y2253487D01*
X5030977Y2257297D01*
X5027422Y2260854D01*
X5023865Y2267965D01*
X5023865Y2275331D01*
X5027422Y2282697D01*
X5030977Y2286254D01*
X5041900Y2289810D01*
X5074665Y2289810D02*
G01*
X5041900Y2289810D01*
X5030977Y2293620D01*
X5027422Y2297176D01*
X5023865Y2304542D01*
X5023865Y2315463D01*
X5027422Y2322576D01*
X5030977Y2326386D01*
X5041900Y2329942D01*
X5074665Y2329942D01*
X4966970Y2264410D02*
G01*
X4966970Y2329942D01*
X4999736Y2297176D02*
G01*
X4934204Y2297176D01*
X3234943Y1291589D02*
G01*
X3238754Y1284223D01*
X3245865Y1277112D01*
X3253231Y1273302D01*
X3267709Y1273302D01*
X3275075Y1277112D01*
X3282188Y1284223D01*
X3285997Y1291589D01*
X3289554Y1302512D01*
X3289554Y1320545D01*
X3285997Y1331468D01*
X3282188Y1338834D01*
X3275075Y1346200D01*
X3267709Y1349755D01*
X3253231Y1349755D01*
X3245865Y1346200D01*
X3238754Y1338834D01*
X3234943Y1331468D01*
X3234943Y1320545D01*
X3253231Y1320545D02*
G01*
X3234943Y1320545D01*
X3211068Y1273302D02*
G01*
X3211068Y1349755D01*
X3211068Y1273302D02*
G01*
X3160013Y1349755D01*
X3160013Y1273302D02*
G01*
X3160013Y1349755D01*
X3136138Y1273302D02*
G01*
X3136138Y1349755D01*
X3136138Y1273302D02*
G01*
X3110738Y1273302D01*
X3099815Y1277112D01*
X3092450Y1284223D01*
X3088893Y1291589D01*
X3085084Y1302512D01*
X3085084Y1320545D01*
X3088893Y1331468D01*
X3092450Y1338834D01*
X3099815Y1346200D01*
X3110738Y1349755D01*
X3136138Y1349755D01*
X3189477Y1523492D02*
G01*
X3189477Y1599945D01*
X3189477Y1523492D02*
G01*
X3164077Y1523492D01*
X3153156Y1527302D01*
X3145790Y1534413D01*
X3142234Y1541779D01*
X3138677Y1552702D01*
X3138677Y1570736D01*
X3142234Y1581657D01*
X3145790Y1589023D01*
X3153156Y1596389D01*
X3164077Y1599945D01*
X3189477Y1599945D01*
X3089147Y1523492D02*
G01*
X3089147Y1599945D01*
X3114547Y1523492D02*
G01*
X3063747Y1523492D01*
X3238754Y1784350D02*
G01*
X3245865Y1777237D01*
X3256788Y1773428D01*
X3271265Y1773428D01*
X3282188Y1777237D01*
X3289554Y1784350D01*
X3289554Y1791715D01*
X3285997Y1798828D01*
X3282188Y1802637D01*
X3275075Y1806194D01*
X3253231Y1813560D01*
X3245865Y1817115D01*
X3242309Y1820671D01*
X3238754Y1828037D01*
X3238754Y1838960D01*
X3245865Y1846326D01*
X3256788Y1849881D01*
X3271265Y1849881D01*
X3282188Y1846326D01*
X3289554Y1838960D01*
X3160013Y1791715D02*
G01*
X3163824Y1784350D01*
X3170936Y1777237D01*
X3178302Y1773428D01*
X3192779Y1773428D01*
X3200145Y1777237D01*
X3207258Y1784350D01*
X3211068Y1791715D01*
X3214624Y1802637D01*
X3214624Y1820671D01*
X3211068Y1831594D01*
X3207258Y1838960D01*
X3200145Y1846326D01*
X3192779Y1849881D01*
X3178302Y1849881D01*
X3170936Y1846326D01*
X3163824Y1838960D01*
X3160013Y1831594D01*
X3136138Y1773428D02*
G01*
X3136138Y1849881D01*
X3085084Y1773428D02*
G01*
X3136138Y1824481D01*
X3117850Y1806194D02*
G01*
X3085084Y1849881D01*
X3289554Y2023363D02*
G01*
X3260343Y2099818D01*
X3231388Y2023363D02*
G01*
X3260343Y2099818D01*
X3152902Y2041652D02*
G01*
X3156458Y2034286D01*
X3163824Y2027173D01*
X3170936Y2023363D01*
X3185668Y2023363D01*
X3192779Y2027173D01*
X3200145Y2034286D01*
X3203702Y2041652D01*
X3207258Y2052573D01*
X3207258Y2070607D01*
X3203702Y2081529D01*
X3200145Y2088895D01*
X3192779Y2096262D01*
X3185668Y2099818D01*
X3170936Y2099818D01*
X3163824Y2096262D01*
X3156458Y2088895D01*
X3152902Y2081529D01*
X3074161Y2041652D02*
G01*
X3077972Y2034286D01*
X3085084Y2027173D01*
X3092450Y2023363D01*
X3106927Y2023363D01*
X3114293Y2027173D01*
X3121659Y2034286D01*
X3125215Y2041652D01*
X3128772Y2052573D01*
X3128772Y2070607D01*
X3125215Y2081529D01*
X3121659Y2088895D01*
X3114293Y2096262D01*
X3106927Y2099818D01*
X3092450Y2099818D01*
X3085084Y2096262D01*
X3077972Y2088895D01*
X3074161Y2081529D01*
X4479648Y2021933D02*
G01*
X4479648Y2215989D01*
X4350362Y2021933D02*
G01*
X4350362Y2215989D01*
X4479648Y2114389D02*
G01*
X4350362Y2114389D01*
X4289402Y2021933D02*
G01*
X4160116Y2215989D01*
X4160116Y2021933D02*
G01*
X4289402Y2215989D01*
X3969870Y2021933D02*
G01*
X4062072Y2215989D01*
X4099156Y2021933D02*
G01*
X3969870Y2021933D01*
X3908910Y2059017D02*
G01*
X3890368Y2049619D01*
X3862682Y2021933D01*
X3862682Y2215989D01*
X3801722Y2059017D02*
G01*
X3783180Y2049619D01*
X3755494Y2021933D01*
X3755494Y2215989D01*
D10*
X2386584Y4191000D02*
G01*
X2464561Y4191000D01*
X2480056Y4196079D01*
X2490470Y4206494D01*
X2495550Y4222242D01*
X2495550Y4232655D01*
X2490470Y4248150D01*
X2480056Y4258563D01*
X2464561Y4263644D01*
X2386584Y4263644D01*
X2386584Y4350004D02*
G01*
X2459227Y4297934D01*
X2459227Y4375912D01*
X2386584Y4350004D02*
G01*
X2495550Y4350004D01*
X4935600Y3008884D02*
G01*
X4935600Y3086862D01*
X4930520Y3102355D01*
X4920106Y3112770D01*
X4904359Y3117850D01*
X4893945Y3117850D01*
X4878450Y3112770D01*
X4868036Y3102355D01*
X4862956Y3086862D01*
X4862956Y3008884D01*
X4766183Y3008884D02*
G01*
X4818252Y3008884D01*
X4823333Y3055620D01*
X4818252Y3050539D01*
X4802504Y3045205D01*
X4787011Y3045205D01*
X4771516Y3050539D01*
X4761102Y3060700D01*
X4755768Y3076447D01*
X4755768Y3086862D01*
X4761102Y3102355D01*
X4771516Y3112770D01*
X4787011Y3117850D01*
X4802504Y3117850D01*
X4818252Y3112770D01*
X4823333Y3107689D01*
X4828666Y3097276D01*
X14909800Y5068315D02*
G01*
X14909800Y4990337D01*
X14914879Y4974844D01*
X14925293Y4964429D01*
X14941041Y4959350D01*
X14951456Y4959350D01*
X14966950Y4964429D01*
X14977363Y4974844D01*
X14982443Y4990337D01*
X14982443Y5068315D01*
X15079218Y5052821D02*
G01*
X15073884Y5063236D01*
X15058390Y5068315D01*
X15047975Y5068315D01*
X15032481Y5063236D01*
X15022068Y5047487D01*
X15016734Y5021579D01*
X15016734Y4995671D01*
X15022068Y4974844D01*
X15032481Y4964429D01*
X15047975Y4959350D01*
X15053309Y4959350D01*
X15068804Y4964429D01*
X15079218Y4974844D01*
X15084297Y4990337D01*
X15084297Y4995671D01*
X15079218Y5011165D01*
X15068804Y5021579D01*
X15053309Y5026660D01*
X15047975Y5026660D01*
X15032481Y5021579D01*
X15022068Y5011165D01*
X15016734Y4995671D01*
D11*
X14459711Y4681728D02*
G01*
X14459711Y4586223D01*
X14459711Y4681728D02*
G01*
X14491461Y4681728D01*
X14505177Y4677155D01*
X14514322Y4668012D01*
X14518893Y4658868D01*
X14523466Y4645405D01*
X14523466Y4622545D01*
X14518893Y4608829D01*
X14514322Y4599939D01*
X14505177Y4590795D01*
X14491461Y4586223D01*
X14459711Y4586223D01*
X14553438Y4681728D02*
G01*
X14553438Y4586223D01*
X14553438Y4681728D02*
G01*
X14612366Y4681728D01*
X14553438Y4636262D02*
G01*
X14589759Y4636262D01*
X14642338Y4681728D02*
G01*
X14642338Y4586223D01*
X14642338Y4681728D02*
G01*
X14682977Y4681728D01*
X14696947Y4677155D01*
X14701520Y4672584D01*
X14706091Y4663439D01*
X14706091Y4649723D01*
X14701520Y4640834D01*
X14696947Y4636262D01*
X14682977Y4631689D01*
X14642338Y4631689D01*
X14736063Y4681728D02*
G01*
X14736063Y4586223D01*
X14820645Y4649723D02*
G01*
X14820645Y4586223D01*
X14820645Y4636262D02*
G01*
X14811502Y4645405D01*
X14802104Y4649723D01*
X14788895Y4649723D01*
X14779752Y4645405D01*
X14770354Y4636262D01*
X14766036Y4622545D01*
X14766036Y4613402D01*
X14770354Y4599939D01*
X14779752Y4590795D01*
X14788895Y4586223D01*
X14802104Y4586223D01*
X14811502Y4590795D01*
X14820645Y4599939D01*
X14855190Y4649723D02*
G01*
X14882368Y4586223D01*
X14909800Y4649723D02*
G01*
X14882368Y4586223D01*
X14873224Y4567936D01*
X14864334Y4559045D01*
X14855190Y4554473D01*
X14850618Y4554473D01*
X14939772Y4622545D02*
G01*
X14994127Y4622545D01*
X14994127Y4631689D01*
X14989809Y4640834D01*
X14985238Y4645405D01*
X14976093Y4649723D01*
X14962377Y4649723D01*
X14953234Y4645405D01*
X14944343Y4636262D01*
X14939772Y4622545D01*
X14939772Y4613402D01*
X14944343Y4599939D01*
X14953234Y4590795D01*
X14962377Y4586223D01*
X14976093Y4586223D01*
X14985238Y4590795D01*
X14994127Y4599939D01*
X15024354Y4649723D02*
G01*
X15024354Y4586223D01*
X15024354Y4622545D02*
G01*
X15028925Y4636262D01*
X15037816Y4645405D01*
X15046959Y4649723D01*
X15060675Y4649723D01*
X15160497Y4681728D02*
G01*
X15160497Y4586223D01*
X15160497Y4681728D02*
G01*
X15197074Y4586223D01*
X15233395Y4681728D02*
G01*
X15197074Y4586223D01*
X15233395Y4681728D02*
G01*
X15233395Y4586223D01*
X15263368Y4681728D02*
G01*
X15267940Y4677155D01*
X15272511Y4681728D01*
X15267940Y4686300D01*
X15263368Y4681728D01*
X15267940Y4649723D02*
G01*
X15267940Y4586223D01*
X15302484Y4649723D02*
G01*
X15302484Y4586223D01*
X15302484Y4631689D02*
G01*
X15316200Y4645405D01*
X15325090Y4649723D01*
X15338806Y4649723D01*
X15347950Y4645405D01*
X15352522Y4631689D01*
X15352522Y4586223D01*
X15382493Y4681728D02*
G01*
X15387066Y4677155D01*
X15391638Y4681728D01*
X15387066Y4686300D01*
X15382493Y4681728D01*
X15387066Y4649723D02*
G01*
X15387066Y4586223D01*
D10*
X21167389Y338472D02*
G01*
X21245367Y338472D01*
X21260861Y343552D01*
X21271275Y353966D01*
X21276355Y369714D01*
X21276355Y380128D01*
X21271275Y395622D01*
X21260861Y406036D01*
X21245367Y411116D01*
X21167389Y411116D01*
X21167389Y518304D02*
G01*
X21276355Y466234D01*
X21167389Y445406D02*
G01*
X21167389Y518304D01*
D11*
X21757215Y-729388D02*
G01*
X21852719Y-729388D01*
X21852719Y-729388D02*
G01*
X21852719Y-675032D01*
X21757215Y-645060D02*
G01*
X21852719Y-645060D01*
X21757215Y-645060D02*
G01*
X21852719Y-608484D01*
X21757215Y-572162D02*
G01*
X21852719Y-608484D01*
X21757215Y-572162D02*
G01*
X21852719Y-572162D01*
X21780075Y-537618D02*
G01*
X21775503Y-537618D01*
X21766359Y-533046D01*
X21761787Y-528728D01*
X21757215Y-519584D01*
X21757215Y-501296D01*
X21761787Y-492152D01*
X21766359Y-487580D01*
X21775503Y-483262D01*
X21784647Y-483262D01*
X21793537Y-487580D01*
X21807253Y-496724D01*
X21852719Y-542190D01*
X21852719Y-478690D01*
X21757215Y-394108D02*
G01*
X21757215Y-439574D01*
X21798109Y-444146D01*
X21793537Y-439574D01*
X21789219Y-425858D01*
X21789219Y-412142D01*
X21793537Y-398680D01*
X21802681Y-389536D01*
X21816397Y-384964D01*
X21825541Y-384964D01*
X21839003Y-389536D01*
X21848147Y-398680D01*
X21852719Y-412142D01*
X21852719Y-425858D01*
X21848147Y-439574D01*
X21843575Y-444146D01*
X21834685Y-448718D01*
X21789219Y-295810D02*
G01*
X21802681Y-300382D01*
X21811825Y-309526D01*
X21816397Y-323242D01*
X21816397Y-327814D01*
X21811825Y-341276D01*
X21802681Y-350420D01*
X21789219Y-354992D01*
X21784647Y-354992D01*
X21770931Y-350420D01*
X21761787Y-341276D01*
X21757215Y-327814D01*
X21757215Y-323242D01*
X21761787Y-309526D01*
X21770931Y-300382D01*
X21789219Y-295810D01*
X21811825Y-295810D01*
X21834685Y-300382D01*
X21848147Y-309526D01*
X21852719Y-323242D01*
X21852719Y-332132D01*
X21848147Y-345848D01*
X21839003Y-350420D01*
X21770931Y-211228D02*
G01*
X21761787Y-215800D01*
X21757215Y-229516D01*
X21757215Y-238660D01*
X21761787Y-252122D01*
X21775503Y-261266D01*
X21798109Y-265838D01*
X21820969Y-265838D01*
X21839003Y-261266D01*
X21848147Y-252122D01*
X21852719Y-238660D01*
X21852719Y-234088D01*
X21848147Y-220372D01*
X21839003Y-211228D01*
X21825541Y-206910D01*
X21820969Y-206910D01*
X21807253Y-211228D01*
X21798109Y-220372D01*
X21793537Y-234088D01*
X21793537Y-238660D01*
X21798109Y-252122D01*
X21807253Y-261266D01*
X21820969Y-265838D01*
X21770931Y-113184D02*
G01*
X21761787Y-122328D01*
X21757215Y-135790D01*
X21757215Y-154078D01*
X21761787Y-167794D01*
X21770931Y-176684D01*
X21780075Y-176684D01*
X21789219Y-172366D01*
X21793537Y-167794D01*
X21798109Y-158650D01*
X21807253Y-131218D01*
X21811825Y-122328D01*
X21816397Y-117756D01*
X21825541Y-113184D01*
X21839003Y-113184D01*
X21848147Y-122328D01*
X21852719Y-135790D01*
X21852719Y-154078D01*
X21848147Y-167794D01*
X21839003Y-176684D01*
D12*
X23177233Y-2219581D02*
G01*
X23272737Y-2219581D01*
X23177233Y-2189609D02*
G01*
X23272737Y-2189609D01*
X23177233Y-2189609D02*
G01*
X23272737Y-2125855D01*
X23177233Y-2125855D02*
G01*
X23272737Y-2125855D01*
X23231843Y-2095883D02*
G01*
X23231843Y-2014095D01*
X21427358Y-2219584D02*
G01*
X21522862Y-2219584D01*
X21427358Y-2189612D02*
G01*
X21522862Y-2189612D01*
X21427358Y-2189612D02*
G01*
X21522862Y-2125858D01*
X21427358Y-2125858D02*
G01*
X21522862Y-2125858D01*
X21440820Y-2054992D02*
G01*
X21522862Y-2054992D01*
X21481714Y-2095886D02*
G01*
X21481714Y-2014098D01*
X23157233Y2557642D02*
G01*
X23161805Y2548752D01*
X23170949Y2539608D01*
X23180093Y2535036D01*
X23193555Y2530462D01*
X23216415Y2530462D01*
X23230131Y2535036D01*
X23239021Y2539608D01*
X23248165Y2548752D01*
X23252737Y2557642D01*
X23252737Y2575928D01*
X23248165Y2585074D01*
X23239021Y2594218D01*
X23230131Y2598790D01*
X23216415Y2603108D01*
X23193555Y2603108D01*
X23180093Y2598790D01*
X23170949Y2594218D01*
X23161805Y2585074D01*
X23157233Y2575928D01*
X23157233Y2557642D01*
X23157233Y2633334D02*
G01*
X23225559Y2633334D01*
X23239021Y2637652D01*
X23248165Y2646796D01*
X23252737Y2660512D01*
X23252737Y2669656D01*
X23248165Y2683118D01*
X23239021Y2692262D01*
X23225559Y2696834D01*
X23157233Y2696834D01*
X23157233Y2758556D02*
G01*
X23252737Y2758556D01*
X23157233Y2726806D02*
G01*
X23157233Y2790560D01*
X23211843Y2820532D02*
G01*
X23211843Y2902320D01*
X21437384Y2557647D02*
G01*
X21441956Y2548757D01*
X21450846Y2539613D01*
X21459990Y2535041D01*
X21473706Y2530469D01*
X21496312Y2530469D01*
X21510028Y2535041D01*
X21519172Y2539613D01*
X21528316Y2548757D01*
X21532634Y2557647D01*
X21532634Y2575935D01*
X21528316Y2585079D01*
X21519172Y2594223D01*
X21510028Y2598795D01*
X21496312Y2603113D01*
X21473706Y2603113D01*
X21459990Y2598795D01*
X21450846Y2594223D01*
X21441956Y2585079D01*
X21437384Y2575935D01*
X21437384Y2557647D01*
X21437384Y2633339D02*
G01*
X21505456Y2633339D01*
X21519172Y2637657D01*
X21528316Y2646801D01*
X21532634Y2660517D01*
X21532634Y2669661D01*
X21528316Y2683123D01*
X21519172Y2692267D01*
X21505456Y2696839D01*
X21437384Y2696839D01*
X21437384Y2758561D02*
G01*
X21532634Y2758561D01*
X21437384Y2726811D02*
G01*
X21437384Y2790565D01*
X21450846Y2861431D02*
G01*
X21532634Y2861431D01*
X21491740Y2820537D02*
G01*
X21491740Y2902325D01*
D11*
X21967367Y-619399D02*
G01*
X22062617Y-619399D01*
X21967367Y-619399D02*
G01*
X21967367Y-587649D01*
X21971939Y-573933D01*
X21980829Y-565043D01*
X21989973Y-560471D01*
X22003689Y-555899D01*
X22026295Y-555899D01*
X22040011Y-560471D01*
X22049155Y-565043D01*
X22058299Y-573933D01*
X22062617Y-587649D01*
X22062617Y-619399D01*
X22012833Y-471317D02*
G01*
X22003689Y-480461D01*
X21999117Y-489605D01*
X21999117Y-503067D01*
X22003689Y-512211D01*
X22012833Y-521355D01*
X22026295Y-525927D01*
X22035439Y-525927D01*
X22049155Y-521355D01*
X22058299Y-512211D01*
X22062617Y-503067D01*
X22062617Y-489605D01*
X22058299Y-480461D01*
X22049155Y-471317D01*
X22021723Y-441345D02*
G01*
X22021723Y-359557D01*
X21967367Y-329585D02*
G01*
X22062617Y-329585D01*
X21967367Y-329585D02*
G01*
X21967367Y-297581D01*
X21971939Y-284119D01*
X21980829Y-274975D01*
X21989973Y-270403D01*
X22003689Y-265831D01*
X22026295Y-265831D01*
X22040011Y-270403D01*
X22049155Y-274975D01*
X22058299Y-284119D01*
X22062617Y-297581D01*
X22062617Y-329585D01*
X22012833Y-181249D02*
G01*
X22003689Y-190393D01*
X21999117Y-199537D01*
X21999117Y-213253D01*
X22003689Y-222143D01*
X22012833Y-231287D01*
X22026295Y-235859D01*
X22035439Y-235859D01*
X22049155Y-231287D01*
X22058299Y-222143D01*
X22062617Y-213253D01*
X22062617Y-199537D01*
X22058299Y-190393D01*
X22049155Y-181249D01*
X22199993Y-681217D02*
G01*
X22190849Y-685789D01*
X22181959Y-694933D01*
X22177387Y-704077D01*
X22177387Y-722111D01*
X22181959Y-731255D01*
X22190849Y-740399D01*
X22199993Y-744971D01*
X22213709Y-749543D01*
X22236315Y-749543D01*
X22250031Y-744971D01*
X22259175Y-740399D01*
X22268319Y-731255D01*
X22272637Y-722111D01*
X22272637Y-704077D01*
X22268319Y-694933D01*
X22259175Y-685789D01*
X22250031Y-681217D01*
X22209137Y-628639D02*
G01*
X22213709Y-637783D01*
X22222853Y-646673D01*
X22236315Y-651245D01*
X22245459Y-651245D01*
X22259175Y-646673D01*
X22268319Y-637783D01*
X22272637Y-628639D01*
X22272637Y-614923D01*
X22268319Y-605779D01*
X22259175Y-596889D01*
X22245459Y-592317D01*
X22236315Y-592317D01*
X22222853Y-596889D01*
X22213709Y-605779D01*
X22209137Y-614923D01*
X22209137Y-628639D01*
X22209137Y-562345D02*
G01*
X22272637Y-562345D01*
X22227171Y-562345D02*
G01*
X22213709Y-548629D01*
X22209137Y-539485D01*
X22209137Y-525769D01*
X22213709Y-516879D01*
X22227171Y-512307D01*
X22272637Y-512307D01*
X22209137Y-482335D02*
G01*
X22272637Y-454903D01*
X22209137Y-427725D02*
G01*
X22272637Y-454903D01*
X22236315Y-397753D02*
G01*
X22236315Y-343143D01*
X22227171Y-343143D01*
X22218281Y-347715D01*
X22213709Y-352287D01*
X22209137Y-361431D01*
X22209137Y-374893D01*
X22213709Y-384037D01*
X22222853Y-393181D01*
X22236315Y-397753D01*
X22245459Y-397753D01*
X22259175Y-393181D01*
X22268319Y-384037D01*
X22272637Y-374893D01*
X22272637Y-361431D01*
X22268319Y-352287D01*
X22259175Y-343143D01*
X22209137Y-313171D02*
G01*
X22272637Y-313171D01*
X22236315Y-313171D02*
G01*
X22222853Y-308599D01*
X22213709Y-299455D01*
X22209137Y-290311D01*
X22209137Y-276849D01*
X22177387Y-233161D02*
G01*
X22254603Y-233161D01*
X22268319Y-228589D01*
X22272637Y-219445D01*
X22272637Y-210301D01*
X22209137Y-246877D02*
G01*
X22209137Y-214873D01*
X22236315Y-180329D02*
G01*
X22236315Y-125973D01*
X22227171Y-125973D01*
X22218281Y-130291D01*
X22213709Y-134863D01*
X22209137Y-144007D01*
X22209137Y-157723D01*
X22213709Y-166867D01*
X22222853Y-175757D01*
X22236315Y-180329D01*
X22245459Y-180329D01*
X22259175Y-175757D01*
X22268319Y-166867D01*
X22272637Y-157723D01*
X22272637Y-144007D01*
X22268319Y-134863D01*
X22259175Y-125973D01*
X22209137Y-95747D02*
G01*
X22272637Y-95747D01*
X22236315Y-95747D02*
G01*
X22222853Y-91429D01*
X22213709Y-82285D01*
X22209137Y-73141D01*
X22209137Y-59425D01*
D10*
X3069716Y-6790004D02*
G01*
X2991738Y-6790004D01*
X2976245Y-6795084D01*
X2965831Y-6805498D01*
X2960750Y-6821246D01*
X2960750Y-6831660D01*
X2965831Y-6847154D01*
X2976245Y-6857568D01*
X2991738Y-6862648D01*
X3069716Y-6862648D01*
X3069716Y-6923100D02*
G01*
X3064636Y-6907352D01*
X3054222Y-6902272D01*
X3043809Y-6902272D01*
X3033395Y-6907352D01*
X3028061Y-6917766D01*
X3022981Y-6938594D01*
X3017900Y-6954088D01*
X3007486Y-6964502D01*
X2997072Y-6969836D01*
X2981325Y-6969836D01*
X2970911Y-6964502D01*
X2965831Y-6959422D01*
X2960750Y-6943674D01*
X2960750Y-6923100D01*
X2965831Y-6907352D01*
X2970911Y-6902272D01*
X2981325Y-6896938D01*
X2997072Y-6896938D01*
X3007486Y-6902272D01*
X3017900Y-6912686D01*
X3022981Y-6928180D01*
X3028061Y-6949008D01*
X3033395Y-6959422D01*
X3043809Y-6964502D01*
X3054222Y-6964502D01*
X3064636Y-6959422D01*
X3069716Y-6943674D01*
X3069716Y-6923100D01*
X13683234Y685800D02*
G01*
X13761211Y685800D01*
X13776706Y690879D01*
X13787120Y701294D01*
X13792200Y717042D01*
X13792200Y727455D01*
X13787120Y742950D01*
X13776706Y753363D01*
X13761211Y758444D01*
X13683234Y758444D01*
X13719556Y860297D02*
G01*
X13735050Y855218D01*
X13745463Y844804D01*
X13750797Y829310D01*
X13750797Y823976D01*
X13745463Y808481D01*
X13735050Y798068D01*
X13719556Y792734D01*
X13714475Y792734D01*
X13698727Y798068D01*
X13688313Y808481D01*
X13683234Y823976D01*
X13683234Y829310D01*
X13688313Y844804D01*
X13698727Y855218D01*
X13719556Y860297D01*
X13745463Y860297D01*
X13771625Y855218D01*
X13787120Y844804D01*
X13792200Y829310D01*
X13792200Y818895D01*
X13787120Y803147D01*
X13776706Y798068D01*
D11*
X14605000Y1779778D02*
G01*
X14605000Y1585976D01*
X14605000Y1779778D02*
G01*
X14688058Y1779778D01*
X14715743Y1770634D01*
X14725141Y1761489D01*
X14734286Y1742947D01*
X14734286Y1724405D01*
X14725141Y1705863D01*
X14715743Y1696720D01*
X14688058Y1687576D01*
X14605000Y1687576D01*
X14669770Y1687576D02*
G01*
X14734286Y1585976D01*
X14795245Y1659889D02*
G01*
X14905990Y1659889D01*
X14905990Y1678178D01*
X14896845Y1696720D01*
X14887702Y1705863D01*
X14869159Y1715262D01*
X14841474Y1715262D01*
X14822931Y1705863D01*
X14804390Y1687576D01*
X14795245Y1659889D01*
X14795245Y1641347D01*
X14804390Y1613662D01*
X14822931Y1595120D01*
X14841474Y1585976D01*
X14869159Y1585976D01*
X14887702Y1595120D01*
X14905990Y1613662D01*
X14966950Y1779778D02*
G01*
X14966950Y1585976D01*
X15138908Y1715262D02*
G01*
X15138908Y1585976D01*
X15138908Y1687576D02*
G01*
X15120366Y1705863D01*
X15101824Y1715262D01*
X15074138Y1715262D01*
X15055850Y1705863D01*
X15037308Y1687576D01*
X15027909Y1659889D01*
X15027909Y1641347D01*
X15037308Y1613662D01*
X15055850Y1595120D01*
X15074138Y1585976D01*
X15101824Y1585976D01*
X15120366Y1595120D01*
X15138908Y1613662D01*
X15209011Y1715262D02*
G01*
X15264384Y1585976D01*
X15320009Y1715262D02*
G01*
X15264384Y1585976D01*
X15246095Y1548892D01*
X15227554Y1530350D01*
X15209011Y1521205D01*
X15199868Y1521205D01*
X15523209Y1779778D02*
G01*
X15523209Y1585976D01*
X15523209Y1779778D02*
G01*
X15596870Y1585976D01*
X15670784Y1779778D02*
G01*
X15596870Y1585976D01*
X15670784Y1779778D02*
G01*
X15670784Y1585976D01*
X15777972Y1715262D02*
G01*
X15759429Y1705863D01*
X15741141Y1687576D01*
X15731743Y1659889D01*
X15731743Y1641347D01*
X15741141Y1613662D01*
X15759429Y1595120D01*
X15777972Y1585976D01*
X15805658Y1585976D01*
X15824200Y1595120D01*
X15842741Y1613662D01*
X15851886Y1641347D01*
X15851886Y1659889D01*
X15842741Y1687576D01*
X15824200Y1705863D01*
X15805658Y1715262D01*
X15777972Y1715262D01*
X16023590Y1779778D02*
G01*
X16023590Y1585976D01*
X16023590Y1687576D02*
G01*
X16005302Y1705863D01*
X15986759Y1715262D01*
X15959074Y1715262D01*
X15940531Y1705863D01*
X15921990Y1687576D01*
X15912845Y1659889D01*
X15912845Y1641347D01*
X15921990Y1613662D01*
X15940531Y1595120D01*
X15959074Y1585976D01*
X15986759Y1585976D01*
X16005302Y1595120D01*
X16023590Y1613662D01*
X16084550Y1715262D02*
G01*
X16084550Y1622805D01*
X16093947Y1595120D01*
X16112490Y1585976D01*
X16140175Y1585976D01*
X16158463Y1595120D01*
X16186150Y1622805D01*
X16186150Y1715262D02*
G01*
X16186150Y1585976D01*
X16247109Y1779778D02*
G01*
X16247109Y1585976D01*
X16308070Y1659889D02*
G01*
X16419068Y1659889D01*
X16419068Y1678178D01*
X16409670Y1696720D01*
X16400525Y1705863D01*
X16381984Y1715262D01*
X16354297Y1715262D01*
X16336009Y1705863D01*
X16317468Y1687576D01*
X16308070Y1659889D01*
X16308070Y1641347D01*
X16317468Y1613662D01*
X16336009Y1595120D01*
X16354297Y1585976D01*
X16381984Y1585976D01*
X16400525Y1595120D01*
X16419068Y1613662D01*
X17016984Y1384300D02*
G01*
X16873727Y1384300D01*
X17016984Y1384300D02*
G01*
X16873727Y1288795D01*
X17016984Y1288795D02*
G01*
X16873727Y1288795D01*
X16982948Y1141476D02*
G01*
X16996409Y1148334D01*
X17010125Y1162050D01*
X17016984Y1175765D01*
X17016984Y1202944D01*
X17010125Y1216660D01*
X16996409Y1230121D01*
X16982948Y1236979D01*
X16962374Y1243837D01*
X16928338Y1243837D01*
X16907763Y1236979D01*
X16894302Y1230121D01*
X16880586Y1216660D01*
X16873727Y1202944D01*
X16873727Y1175765D01*
X16880586Y1162050D01*
X16894302Y1148334D01*
X16907763Y1141476D01*
X16982948Y786637D02*
G01*
X16996409Y793495D01*
X17010125Y807212D01*
X17016984Y820928D01*
X17016984Y848105D01*
X17010125Y861821D01*
X16996409Y875284D01*
X16982948Y882142D01*
X16962374Y889000D01*
X16928338Y889000D01*
X16907763Y882142D01*
X16894302Y875284D01*
X16880586Y861821D01*
X16873727Y848105D01*
X16873727Y820928D01*
X16880586Y807212D01*
X16894302Y793495D01*
X16907763Y786637D01*
X17016984Y700786D02*
G01*
X17010125Y714502D01*
X16996409Y727963D01*
X16982948Y734821D01*
X16962374Y741679D01*
X16928338Y741679D01*
X16907763Y734821D01*
X16894302Y727963D01*
X16880586Y714502D01*
X16873727Y700786D01*
X16873727Y673607D01*
X16880586Y659892D01*
X16894302Y646176D01*
X16907763Y639571D01*
X16928338Y632713D01*
X16962374Y632713D01*
X16982948Y639571D01*
X16996409Y646176D01*
X17010125Y659892D01*
X17016984Y673607D01*
X17016984Y700786D01*
X17016984Y587755D02*
G01*
X16873727Y587755D01*
X17016984Y587755D02*
G01*
X16873727Y533145D01*
X17016984Y478536D02*
G01*
X16873727Y533145D01*
X17016984Y478536D02*
G01*
X16873727Y478536D01*
X17016984Y368300D02*
G01*
X16873727Y368300D01*
X17016984Y368300D02*
G01*
X16873727Y272795D01*
X17016984Y272795D02*
G01*
X16873727Y272795D01*
X17016984Y186944D02*
G01*
X17010125Y200660D01*
X16996409Y214121D01*
X16982948Y220979D01*
X16962374Y227837D01*
X16928338Y227837D01*
X16907763Y220979D01*
X16894302Y214121D01*
X16880586Y200660D01*
X16873727Y186944D01*
X16873727Y159765D01*
X16880586Y146050D01*
X16894302Y132334D01*
X16907763Y125476D01*
X16928338Y118871D01*
X16962374Y118871D01*
X16982948Y125476D01*
X16996409Y132334D01*
X17010125Y146050D01*
X17016984Y159765D01*
X17016984Y186944D01*
X13968475Y507745D02*
G01*
X13977366Y516889D01*
X13981938Y530605D01*
X13981938Y548894D01*
X13977366Y562355D01*
X13968475Y571500D01*
X13959331Y571500D01*
X13950188Y566928D01*
X13945616Y562355D01*
X13941043Y553212D01*
X13931900Y526034D01*
X13927581Y516889D01*
X13923009Y512318D01*
X13913866Y507745D01*
X13900150Y507745D01*
X13891006Y516889D01*
X13886434Y530605D01*
X13886434Y548894D01*
X13891006Y562355D01*
X13900150Y571500D01*
X13968475Y251205D02*
G01*
X13886434Y251205D01*
X13927581Y292100D02*
G01*
X13927581Y210312D01*
X13927581Y38100D02*
G01*
X13927581Y-43687D01*
D10*
X22313900Y-2488184D02*
G01*
X22355556Y-2597150D01*
X22396958Y-2488184D02*
G01*
X22355556Y-2597150D01*
X22431248Y-2509012D02*
G01*
X22441661Y-2503678D01*
X22457409Y-2488184D01*
X22457409Y-2597150D01*
G36*
X23118216Y-559511D02*
G01*
X22968204Y-769518D01*
X23258221Y-769518D01*
G37*
G36*
X21398179Y90474D02*
G01*
X21398179Y-909523D01*
X21598178Y-909523D01*
X21598178Y90474D01*
G37*
G36*
X22408184Y-739495D02*
G01*
X22408184Y-839520D01*
X22708209Y-839520D01*
X22708209Y-739495D01*
G37*
G36*
X22408184Y-539496D02*
G01*
X22408184Y-639521D01*
X22708209Y-639521D01*
X22708209Y-539496D01*
G37*
G36*
X22408184Y-339496D02*
G01*
X22408184Y-439521D01*
X22708209Y-439521D01*
X22708209Y-339496D01*
G37*
G36*
X22408184Y-139496D02*
G01*
X22408184Y-239521D01*
X22708209Y-239521D01*
X22708209Y-139496D01*
G37*
G36*
X22408184Y60502D02*
G01*
X22408184Y-39522D01*
X22708209Y-39522D01*
X22708209Y60502D01*
G37*
G36*
X22858171Y-1119530D02*
G01*
X22858171Y-1219504D01*
X23058170Y-1219504D01*
X23058170Y-1119530D01*
G37*
G36*
X21428202Y1780489D02*
G01*
X21428202Y1680514D01*
X21628201Y1680514D01*
X21628201Y1780489D01*
G37*
G36*
X21428202Y1970481D02*
G01*
X21428202Y1870506D01*
X21628201Y1870506D01*
X21628201Y1970481D01*
G37*
G36*
X21438209Y380492D02*
G01*
X21438209Y280466D01*
X21638209Y280466D01*
X21638209Y380492D01*
G37*
G36*
X21728176Y380492D02*
G01*
X21728176Y280517D01*
X21928175Y280517D01*
X21928175Y380492D01*
G37*
G36*
X22978211Y-519531D02*
G01*
X22978211Y-579526D01*
X23258221Y-579526D01*
X23258221Y-519531D01*
G37*
G36*
X13970000Y1074724D02*
G01*
X13970000Y774700D01*
X14122400Y774700D01*
X14122400Y1074724D01*
G37*
D13*
X15842899Y-1422699D02*
G01*
X15322900Y-1422699D01*
X15322900Y-1422699D02*
G01*
X15322900Y-1142700D01*
X15842899Y-1142700D02*
G01*
X15322900Y-1142700D01*
X15842899Y-1422699D02*
G01*
X15842899Y-1142700D01*
X15746973Y-1422699D02*
G01*
X15746973Y-1142700D01*
X15257779Y-1882139D02*
G01*
X15958820Y-1882139D01*
X15958820Y-1882139D02*
G01*
X15958820Y-2501900D01*
X15958820Y-2501900D02*
G01*
X15958820Y-2583179D01*
X15958820Y-2583179D02*
G01*
X15257779Y-2583179D01*
X15257779Y-2583179D02*
G01*
X15257779Y-2501900D01*
X15257779Y-2501900D02*
G01*
X15257779Y-1882139D01*
X15958820Y-2501900D02*
G01*
X15257779Y-2501900D01*
X21399500Y-3327400D02*
G01*
X21399500Y-5202435D01*
X18549477Y-5202400D01*
X18549477Y-4377395D01*
X18349478Y-4177395D01*
X18349478Y-3327400D01*
X22798336Y-5642030D02*
G01*
X23048353Y-5642030D01*
X23048353Y-6642031D01*
X22798336Y-6642031D01*
X22798336Y-6642031D02*
G01*
X22798336Y-5642030D01*
X13271500Y-8961399D02*
G01*
X13271500Y-3327400D01*
X21174483Y-5027388D02*
G01*
X21224488Y-4977396D01*
X21224488Y-3977396D01*
X21124489Y-3977396D01*
X21124489Y-4977396D01*
X21174483Y-5027388D01*
X14200459Y-7809415D02*
G01*
X14325429Y-7684449D01*
X14325429Y-7559476D01*
X13271500Y-8961399D02*
G01*
X23067500Y-8961399D01*
X13271500Y-3327400D02*
G01*
X14945103Y-3321304D01*
X23066481Y-3327400D01*
X23067500Y-8961399D02*
G01*
X23067502Y-3327400D01*
X14200459Y-7809415D02*
G01*
X14325429Y-7684449D01*
X14325429Y-7559476D01*
X13650551Y-7909488D02*
G01*
X13400432Y-7909407D01*
X13400432Y-4359404D01*
X14200459Y-6759376D02*
G01*
X14325429Y-6884349D01*
X14325429Y-6984423D01*
X13650432Y-7909407D02*
G01*
X13650432Y-4359404D01*
X14200459Y-6759376D02*
G01*
X14325429Y-6884349D01*
X14325429Y-6984423D01*
X13400432Y-4359404D02*
G01*
X13650432Y-4359404D01*
D11*
X2908300Y-4241800D02*
G01*
X2654300Y-4241800D01*
X2654300Y-2209800D01*
X2908300Y-2209800D01*
X2908300Y-2400300D01*
D14*
X2908300Y-4241800D02*
G01*
X2908300Y-2400300D01*
D11*
X7162800Y-8636000D02*
G01*
X7670800Y-8636000D01*
X7670800Y-3556000D01*
X7162800Y-3556000D01*
X7162800Y-8636000D01*
D13*
X22606000Y4203700D02*
G01*
X22504400Y4203700D01*
X22504400Y4711700D01*
X22606000Y4711700D01*
X22860000Y4965700D01*
X22860000Y3949700D01*
X22606000Y4203700D01*
X22606000Y4711700D01*
D15*
X2910331Y-1371092D02*
G01*
X2652268Y-1371092D01*
X2652268Y-1371092D02*
G01*
X2652268Y177292D01*
X2652268Y177292D02*
G01*
X2910331Y177292D01*
X2910331Y177292D02*
G01*
X2910331Y-1371092D01*
X2910331Y-1113028D02*
G01*
X2652268Y-1113028D01*
D13*
X4269600Y886998D02*
G01*
X4269600Y1737009D01*
X3919588Y1737009D01*
X3919588Y886998D01*
X4269600Y886998D01*
X2286000Y2667000D02*
G01*
X2286000Y667004D01*
X2286000Y660400D02*
G01*
X5562600Y660400D01*
X5689600Y660400D01*
X5689600Y2667000D02*
G01*
X5689600Y667004D01*
X5689600Y2667000D02*
G01*
X2289606Y2667000D01*
X2527300Y3556000D02*
G01*
X2527300Y4826000D01*
X3035300Y4826000D01*
X3035300Y3556000D01*
X2527300Y3556000D01*
X5414899Y3691001D02*
G01*
X4914900Y3691001D01*
X4914900Y4191000D01*
X5414899Y4191000D01*
X5414899Y3691001D01*
X5680900Y3175000D02*
G01*
X5680900Y5207000D01*
X4156905Y5207000D01*
X4156905Y3175000D01*
X5680900Y3175000D01*
X15049588Y4901437D02*
G01*
X15938494Y4902200D01*
X15938494Y2819405D01*
X13884402Y2827197D01*
X13884402Y4902200D01*
X14770097Y4902487D01*
X14270786Y2824810D02*
G01*
X14270786Y4399813D01*
X15545790Y4399813D01*
X15545790Y2824810D01*
X21313185Y-1914507D02*
G01*
X21313185Y2441592D01*
X23385825Y2441592D01*
X23385825Y-1914507D01*
X21313185Y-1914507D01*
D16*
X22598194Y-1529506D02*
G01*
X22598194Y-1299507D01*
X22528194Y-1609506D02*
G01*
X22528194Y-1209504D01*
X22478197Y1760496D02*
G01*
X22478197Y2160498D01*
X22548197Y1840496D02*
G01*
X22548197Y2070496D01*
D18*
X21888198Y540494D02*
G01*
X21858198Y540494D01*
X21858198Y1440494D01*
X21888198Y1440494D01*
D13*
X21968200Y-1809503D02*
G01*
X21968200Y-1009505D01*
X22768199Y-1009505D01*
X22768199Y-1809503D01*
X21968200Y-1809503D01*
X21398199Y-899497D02*
G01*
X21398199Y100500D01*
X22398197Y100500D01*
X22398197Y-899497D01*
X21398199Y-899497D01*
X21918188Y1550484D02*
G01*
X21918188Y2350482D01*
X22718186Y2350482D01*
X22718186Y1550484D01*
X21918188Y1550484D01*
X22038203Y240504D02*
G01*
X22038203Y1440502D01*
X23238200Y1440502D01*
X23238200Y240504D01*
X22038203Y240504D01*
X21458194Y540504D02*
G01*
X21458194Y1440502D01*
X21858193Y1440502D01*
X21858193Y540504D01*
X21458194Y540504D01*
X22918186Y-999497D02*
G01*
X22918186Y-199499D01*
X23318185Y-199499D01*
X23318185Y-999497D01*
X22918186Y-999497D01*
X2425697Y-4544060D02*
G01*
X2425697Y-9044939D01*
X2263137Y-9044939D01*
X2263137Y-8895079D01*
X2263137Y-7294879D01*
X2263137Y-6294120D01*
X2263137Y-4693920D01*
X2263137Y-4544060D01*
X2425697Y-4544060D01*
X2425697Y-7302500D02*
G01*
X2679697Y-7302500D01*
X2679697Y-7213600D01*
X2679697Y-7137400D01*
X2679697Y-6959600D01*
X2679697Y-6883400D01*
X2679697Y-6705600D01*
X2679697Y-6629400D01*
X2679697Y-6451600D01*
X2679697Y-6375400D01*
X2679697Y-6286500D01*
X2425697Y-6286500D01*
X2425697Y-7302500D01*
X2679697Y-7213600D02*
G01*
X2743197Y-7213600D01*
X2679697Y-7137400D02*
G01*
X2743197Y-7137400D01*
X2679697Y-6959600D02*
G01*
X2743197Y-6959600D01*
X2679697Y-6705600D02*
G01*
X2743197Y-6705600D01*
X2679697Y-6451600D02*
G01*
X2743197Y-6451600D01*
X2679697Y-6883400D02*
G01*
X2743197Y-6883400D01*
X2679697Y-6629400D02*
G01*
X2743197Y-6629400D01*
X2679697Y-6375400D02*
G01*
X2743197Y-6375400D01*
X2263137Y-4693920D02*
G01*
X1061717Y-4693920D01*
X1061717Y-6294120D01*
X2263137Y-6294120D01*
X2263137Y-7294879D02*
G01*
X1061717Y-7294879D01*
X1061717Y-8895079D01*
X2263137Y-8895079D01*
X14312900Y-101600D02*
G01*
X14312900Y1398396D01*
X16192906Y1398396D01*
X16192906Y-101600D01*
X14312900Y-101600D01*
X16338600Y-51485D02*
G01*
X16338600Y1448511D01*
X17138599Y1448511D01*
X17138599Y-51485D01*
X16338600Y-51485D01*
X13844803Y-601497D02*
G01*
X13844803Y1998497D01*
X17184801Y1998497D01*
X17184801Y-601497D01*
X13844803Y-601497D01*
D19*
X22059900Y-2628900D02*
G01*
X22567900Y-2628900D01*
X22059900Y-2882900D02*
G01*
X22059900Y-2628900D01*
X22059900Y-2882900D02*
G01*
X22567900Y-2882900D01*
X22567900Y-2882900D02*
G01*
X22567900Y-2628900D01*
D13*
G75*
G01*
X14770097Y4902487D02*
G03*
X15049589Y4901438I139700J-12705D01*
G75*
G01
X2989682Y966978D02*
G03X2989682Y966978I-200000J0D01*
G75*
G01
X2989605Y2367001D02*
G03X2989605Y2367001I-200000J0D01*
D20*
G75*
G01
X22648215Y-1409497D02*
G03X22648215Y-1409497I-299999J0D01*
G75*
G01
X22598202Y1950491D02*
G03X22598202Y1950491I-299999J0D01*
D21*
G75*
G01
X22938207Y830504D02*
G03X22938207Y830504I-299999J0D01*
D20*
G75*
G01
X21618219Y690499D02*
G03X21618219Y690499I-50013J0D01*
M02*
