G04 Layer: BottomSolderMaskLayer*
G04 EasyEDA v6.5.54, 2026-04-09 20:59:34*
G04 48ed62c4ed5e4daebd3a49d7cfea4b1c,c2296cdfdccb4bf5b3cc1ae1b2fbad1b,10*
G04 Gerber Generator version 0.2*
G04 Scale: 100 percent, Rotated: No, Reflected: No *
G04 Dimensions in millimeters *
G04 leading zeros omitted , absolute positions ,4 integer and 5 decimal *
%FSLAX45Y45*%
%MOMM*%

%AMMACRO1*4,1,8,-1.0371,-1.0668,-1.0668,-1.0368,-1.0668,1.0371,-1.0371,1.0668,1.0368,1.0668,1.0668,1.0371,1.0668,-1.0368,1.0368,-1.0668,-1.0371,-1.0668,0*%
%AMMACRO2*4,1,8,-0.8042,-0.8636,-0.8636,-0.8039,-0.8636,0.8042,-0.8042,0.8636,0.8039,0.8636,0.8636,0.8042,0.8636,-0.8039,0.8039,-0.8636,-0.8042,-0.8636,0*%
%AMMACRO3*4,1,8,-0.921,-0.9507,-0.9507,-0.9207,-0.9507,0.921,-0.921,0.9507,0.9207,0.9507,0.9507,0.921,0.9507,-0.9207,0.9207,-0.9507,-0.921,-0.9507,0*%
%AMMACRO4*4,1,8,-0.731,-0.7607,-0.7607,-0.7308,-0.7607,0.731,-0.731,0.7607,0.7308,0.7607,0.7607,0.731,0.7607,-0.7308,0.7308,-0.7607,-0.731,-0.7607,0*%
%AMMACRO5*4,1,8,-0.8209,-0.8501,-0.8501,-0.8207,-0.8501,0.8209,-0.8209,0.8501,0.8207,0.8501,0.8501,0.8209,0.8501,-0.8207,0.8207,-0.8501,-0.8209,-0.8501,0*%
%AMMACRO6*4,1,8,-0.9101,-0.9398,-0.9398,-0.9098,-0.9398,0.9101,-0.9101,0.9398,0.9098,0.9398,0.9398,0.9101,0.9398,-0.9098,0.9098,-0.9398,-0.9101,-0.9398,0*%
%AMMACRO7*4,1,8,-1.3122,-1.3716,-1.3716,-1.3119,-1.3716,1.3122,-1.3122,1.3716,1.3119,1.3716,1.3716,1.3122,1.3716,-1.3119,1.3119,-1.3716,-1.3122,-1.3716,0*%
%AMMACRO8*4,1,8,-0.7704,-0.8001,-0.8001,-0.7701,-0.8001,0.7704,-0.7704,0.8001,0.7701,0.8001,0.8001,0.7704,0.8001,-0.7701,0.7701,-0.8001,-0.7704,-0.8001,0*%
%ADD10C,1.9016*%
%ADD11MACRO1*%
%ADD12C,2.1336*%
%ADD13MACRO2*%
%ADD14C,1.7272*%
%ADD15MACRO3*%
%ADD16C,1.7016*%
%ADD17C,1.6256*%
%ADD18C,0.0173*%
%ADD19C,1.9032*%
%ADD20MACRO4*%
%ADD21C,1.5215*%
%ADD22C,2.1016*%
%ADD23C,1.7000*%
%ADD24MACRO5*%
%ADD25MACRO6*%
%ADD26C,1.8796*%
%ADD27MACRO7*%
%ADD28C,2.2032*%
%ADD29C,3.7032*%
%ADD30C,1.6002*%
%ADD31MACRO8*%

%LPD*%
D10*
G01*
X16017900Y-1282700D03*
G01*
X15147899Y-1282700D03*
D11*
G01*
X15415260Y-2222500D03*
D12*
G01*
X15801340Y-2222500D03*
D13*
G01*
X13525500Y-4495774D03*
D14*
G01*
X13525500Y-4749800D03*
G01*
X13525500Y-5003800D03*
G01*
X13525500Y-5257800D03*
G01*
X13525500Y-5511800D03*
G01*
X13525500Y-5765800D03*
G01*
X13525500Y-6019800D03*
G01*
X13525500Y-6273800D03*
G01*
X13525500Y-6527800D03*
G01*
X13525500Y-6781800D03*
G01*
X13525500Y-7035800D03*
G01*
X13525500Y-7289800D03*
G01*
X13525500Y-7543800D03*
G01*
X13525500Y-7797800D03*
D13*
G01*
X22923474Y-5765800D03*
D14*
G01*
X22923500Y-6019800D03*
G01*
X22923500Y-6273800D03*
G01*
X22923500Y-6527800D03*
D15*
G01*
X2781300Y-2336800D03*
D10*
G01*
X2781300Y-2590800D03*
G01*
X2781300Y-2844800D03*
G01*
X2781300Y-3098800D03*
G01*
X2781300Y-3352800D03*
G01*
X2781300Y-3606800D03*
G01*
X2781300Y-3860800D03*
G01*
X2781300Y-4114800D03*
D16*
G01*
X7543800Y-8509000D03*
G01*
X7289800Y-8509000D03*
G01*
X7543800Y-8255000D03*
G01*
X7289800Y-8255000D03*
G01*
X7543800Y-8001000D03*
G01*
X7289800Y-8001000D03*
G01*
X7543800Y-7747000D03*
G01*
X7289800Y-7747000D03*
G01*
X7543800Y-7493000D03*
G01*
X7289800Y-7493000D03*
G01*
X7543800Y-7239000D03*
G01*
X7289800Y-7239000D03*
G01*
X7543800Y-6985000D03*
G01*
X7289800Y-6985000D03*
G01*
X7543800Y-6731000D03*
G01*
X7289800Y-6731000D03*
G01*
X7543800Y-6477000D03*
G01*
X7289800Y-6477000D03*
G01*
X7543800Y-6223000D03*
G01*
X7289800Y-6223000D03*
G01*
X7543800Y-5969000D03*
G01*
X7289800Y-5969000D03*
G01*
X7543800Y-5715000D03*
G01*
X7289800Y-5715000D03*
G01*
X7543800Y-5461000D03*
G01*
X7289800Y-5461000D03*
G01*
X7543800Y-5207000D03*
G01*
X7289800Y-5207000D03*
G01*
X7543800Y-4953000D03*
G01*
X7289800Y-4953000D03*
G01*
X7543800Y-4699000D03*
G01*
X7289800Y-4699000D03*
G01*
X7543800Y-4445000D03*
G01*
X7289800Y-4445000D03*
G01*
X7543800Y-4191000D03*
G01*
X7289800Y-4191000D03*
G01*
X7543800Y-3937000D03*
G01*
X7289800Y-3937000D03*
G01*
X7543800Y-3683000D03*
G01*
X7289800Y-3683000D03*
D17*
G01*
X22606000Y4711700D03*
G01*
X22606000Y4203700D03*
D19*
G01*
X9499600Y304800D03*
G01*
X9499600Y558800D03*
G01*
X9499600Y812800D03*
G01*
X9499600Y1066800D03*
G01*
X9499600Y1320800D03*
G01*
X9499600Y1574800D03*
G01*
X9499600Y1828800D03*
G01*
X9499600Y2082800D03*
G01*
X9499600Y2336800D03*
G01*
X9499600Y2590800D03*
G01*
X9499600Y2844800D03*
G01*
X9499600Y3098800D03*
G01*
X9499600Y3352800D03*
G01*
X9499600Y3606800D03*
G01*
X9499600Y3860800D03*
G01*
X12039600Y558800D03*
G01*
X12039600Y812800D03*
G01*
X12039600Y1066800D03*
G01*
X12039600Y1320800D03*
G01*
X12039600Y1574800D03*
G01*
X12039600Y1828800D03*
G01*
X12039600Y2082800D03*
G01*
X12039600Y2336800D03*
G01*
X12039600Y2590800D03*
G01*
X12039600Y2844800D03*
G01*
X12039600Y3098800D03*
G01*
X12039600Y3352800D03*
G01*
X12039600Y3606800D03*
G01*
X12039600Y3860800D03*
G01*
X12039600Y304800D03*
D20*
G01*
X2781300Y-1242060D03*
D21*
G01*
X2781300Y-983995D03*
G01*
X2781300Y-725931D03*
G01*
X2781300Y-467868D03*
G01*
X2781300Y-209804D03*
G01*
X2781300Y48260D03*
D17*
G01*
X5289550Y2292095D03*
G01*
X5289550Y2041905D03*
G01*
X5289550Y1791970D03*
G01*
X5289550Y1542034D03*
G01*
X5289550Y1292097D03*
G01*
X5289550Y1041907D03*
G01*
X2789681Y2041905D03*
G01*
X2789681Y1791970D03*
G01*
X2789681Y1542034D03*
G01*
X2789681Y1292097D03*
D22*
G01*
X2781300Y3810000D03*
G01*
X2781300Y4064000D03*
G01*
X2781300Y4318000D03*
G01*
X2781300Y4572000D03*
D23*
G01*
X5549900Y5080000D03*
G01*
X5549900Y4826000D03*
G01*
X5549900Y4572000D03*
G01*
X5549900Y4318000D03*
G01*
X5549900Y4064000D03*
G01*
X5549900Y3810000D03*
G01*
X5549900Y3556000D03*
D24*
G01*
X5549900Y3302000D03*
D23*
G01*
X4279900Y5080000D03*
G01*
X4279900Y4826000D03*
G01*
X4279900Y4572000D03*
G01*
X4279900Y4318000D03*
G01*
X4279900Y4064000D03*
G01*
X4279900Y3810000D03*
G01*
X4279900Y3556000D03*
G01*
X4279900Y3302000D03*
D25*
G01*
X14020800Y4749800D03*
D26*
G01*
X14020800Y4495800D03*
G01*
X14020800Y4241800D03*
G01*
X14020800Y3987800D03*
G01*
X14020800Y3733800D03*
G01*
X14020800Y3479800D03*
G01*
X14020800Y3225800D03*
G01*
X14020800Y2971800D03*
G01*
X15798800Y4749800D03*
G01*
X15798800Y4495800D03*
G01*
X15798800Y4241800D03*
G01*
X15798800Y3987800D03*
G01*
X15798800Y3733800D03*
G01*
X15798800Y3479800D03*
G01*
X15798800Y3225800D03*
G01*
X15798800Y2971800D03*
D27*
G01*
X21498204Y-1739493D03*
G01*
X23198175Y-1739493D03*
G01*
X23198201Y2260498D03*
G01*
X21498204Y2260498D03*
D10*
G01*
X2832100Y-7175500D03*
G01*
X2832100Y-6921500D03*
G01*
X2832100Y-6667500D03*
D15*
G01*
X2832100Y-6413500D03*
D28*
G01*
X14109700Y-12700D03*
G01*
X14109700Y495300D03*
G01*
X14109700Y241300D03*
D29*
G01*
X16598900Y190500D03*
G01*
X16598900Y698500D03*
G01*
X16598900Y1206500D03*
D30*
G01*
X22440900Y-2755900D03*
D31*
G01*
X22186900Y-2755900D03*
M02*
